<svg width="549" height="490" viewBox="0 0 549 490" fill="none" xmlns="http://www.w3.org/2000/svg">
<g clip-path="url(#clip0_350_27)">
<path d="M353.57 294.659H205.6C201.635 294.655 197.833 292.99 195.029 290.032C192.225 287.073 190.648 283.062 190.643 278.877V72.1465C190.648 67.9623 192.225 63.9509 195.029 60.9922C197.833 58.0335 201.635 56.3692 205.6 56.3644H353.57C357.536 56.3692 361.338 58.0334 364.142 60.9921C366.946 63.9508 368.523 67.9623 368.528 72.1465V278.877C368.523 283.062 366.946 287.073 364.142 290.032C361.338 292.99 357.536 294.655 353.57 294.659V294.659Z" fill="#E6E6E6"/>
<path d="M343.169 281.506H216.001C212.48 281.502 209.105 280.024 206.615 277.397C204.125 274.77 202.725 271.208 202.721 267.493V83.5308C202.725 79.8156 204.125 76.2539 206.615 73.6269C209.105 70.9999 212.48 69.5222 216.001 69.518H343.169C346.69 69.5222 350.066 70.9999 352.556 73.6269C355.045 76.2539 356.446 79.8156 356.45 83.5308V267.493C356.446 271.208 355.045 274.77 352.556 277.397C350.066 280.024 346.69 281.502 343.169 281.506V281.506Z" fill="white"/>
<path d="M330.483 104.478H228.687C228.251 104.479 227.819 104.389 227.416 104.213C227.012 104.037 226.646 103.779 226.337 103.454C226.028 103.129 225.783 102.742 225.616 102.317C225.449 101.892 225.363 101.436 225.363 100.975C225.363 100.515 225.449 100.059 225.616 99.6336C225.783 99.2083 226.028 98.8219 226.337 98.4965C226.646 98.1712 227.012 97.9133 227.416 97.7375C227.819 97.5618 228.251 97.4717 228.687 97.4723H330.483C330.92 97.4717 331.352 97.5618 331.755 97.7375C332.159 97.9133 332.525 98.1712 332.834 98.4965C333.143 98.8219 333.388 99.2083 333.555 99.6336C333.722 100.059 333.808 100.515 333.808 100.975C333.808 101.436 333.722 101.892 333.555 102.317C333.388 102.742 333.143 103.129 332.834 103.454C332.525 103.779 332.159 104.037 331.755 104.213C331.352 104.389 330.92 104.479 330.483 104.478V104.478Z" fill="#E4E4E4"/>
<path d="M330.483 118.32H228.687C227.807 118.32 226.962 117.951 226.34 117.294C225.717 116.637 225.367 115.746 225.367 114.817C225.367 113.888 225.717 112.997 226.34 112.34C226.962 111.683 227.807 111.314 228.687 111.314H330.483C331.364 111.314 332.208 111.683 332.831 112.34C333.454 112.997 333.803 113.888 333.803 114.817C333.803 115.746 333.454 116.637 332.831 117.294C332.208 117.951 331.364 118.32 330.483 118.32Z" fill="#E4E4E4"/>
<path d="M272.813 132.162H228.687C227.807 132.162 226.962 131.793 226.34 131.136C225.717 130.479 225.367 129.588 225.367 128.659C225.367 127.73 225.717 126.839 226.34 126.182C226.962 125.525 227.807 125.156 228.687 125.156H272.813C273.694 125.156 274.538 125.525 275.161 126.182C275.784 126.839 276.133 127.73 276.133 128.659C276.133 129.588 275.784 130.479 275.161 131.136C274.538 131.793 273.694 132.162 272.813 132.162Z" fill="#E4E4E4"/>
<path d="M330.483 161.152H228.687C228.251 161.152 227.819 161.062 227.416 160.887C227.012 160.711 226.646 160.453 226.337 160.128C226.028 159.802 225.783 159.416 225.616 158.991C225.449 158.565 225.363 158.109 225.363 157.649C225.363 157.188 225.449 156.732 225.616 156.307C225.783 155.882 226.028 155.495 226.337 155.17C226.646 154.845 227.012 154.587 227.416 154.411C227.819 154.235 228.251 154.145 228.687 154.146H330.483C330.92 154.145 331.352 154.235 331.755 154.411C332.159 154.587 332.525 154.845 332.834 155.17C333.143 155.495 333.388 155.882 333.555 156.307C333.722 156.732 333.808 157.188 333.808 157.649C333.808 158.109 333.722 158.565 333.555 158.991C333.388 159.416 333.143 159.802 332.834 160.128C332.525 160.453 332.159 160.711 331.755 160.887C331.352 161.062 330.92 161.152 330.483 161.152V161.152Z" fill="#E4E4E4"/>
<path d="M330.483 174.994H228.687C227.807 174.994 226.962 174.625 226.34 173.968C225.717 173.311 225.367 172.42 225.367 171.49C225.367 170.561 225.717 169.67 226.34 169.013C226.962 168.356 227.807 167.987 228.687 167.987H330.483C331.364 167.987 332.208 168.356 332.831 169.013C333.454 169.67 333.803 170.561 333.803 171.49C333.803 172.42 333.454 173.311 332.831 173.968C332.208 174.625 331.364 174.994 330.483 174.994Z" fill="#E4E4E4"/>
<path d="M272.813 188.835H228.687C227.808 188.834 226.964 188.464 226.343 187.808C225.721 187.151 225.372 186.261 225.372 185.332C225.372 184.404 225.721 183.514 226.343 182.857C226.964 182.2 227.808 181.831 228.687 181.829H272.813C273.694 181.829 274.539 182.198 275.161 182.855C275.784 183.512 276.134 184.403 276.134 185.332C276.134 186.261 275.784 187.152 275.161 187.809C274.539 188.466 273.694 188.835 272.813 188.835Z" fill="#E4E4E4"/>
<path d="M330.483 217.825H228.687C228.251 217.826 227.819 217.736 227.416 217.56C227.012 217.384 226.646 217.126 226.337 216.801C226.028 216.476 225.783 216.089 225.616 215.664C225.449 215.239 225.363 214.783 225.363 214.322C225.363 213.862 225.449 213.406 225.616 212.981C225.783 212.555 226.028 212.169 226.337 211.844C226.646 211.518 227.012 211.26 227.416 211.085C227.819 210.909 228.251 210.819 228.687 210.82H330.483C330.92 210.819 331.352 210.909 331.755 211.085C332.159 211.26 332.525 211.518 332.834 211.844C333.143 212.169 333.388 212.555 333.555 212.981C333.722 213.406 333.808 213.862 333.808 214.322C333.808 214.783 333.722 215.239 333.555 215.664C333.388 216.089 333.143 216.476 332.834 216.801C332.525 217.126 332.159 217.384 331.755 217.56C331.352 217.736 330.92 217.826 330.483 217.825V217.825Z" fill="#E4E4E4"/>
<path d="M330.483 231.667H228.687C227.807 231.667 226.962 231.298 226.34 230.641C225.717 229.984 225.367 229.093 225.367 228.164C225.367 227.235 225.717 226.344 226.34 225.687C226.962 225.03 227.807 224.661 228.687 224.661H330.483C331.364 224.661 332.208 225.03 332.831 225.687C333.454 226.344 333.803 227.235 333.803 228.164C333.803 229.093 333.454 229.984 332.831 230.641C332.208 231.298 331.364 231.667 330.483 231.667V231.667Z" fill="#E4E4E4"/>
<path d="M272.813 245.509H228.687C227.807 245.509 226.962 245.14 226.34 244.483C225.717 243.826 225.367 242.935 225.367 242.006C225.367 241.077 225.717 240.186 226.34 239.529C226.962 238.872 227.807 238.503 228.687 238.503H272.813C273.694 238.503 274.538 238.872 275.161 239.529C275.784 240.186 276.133 241.077 276.133 242.006C276.133 242.935 275.784 243.826 275.161 244.483C274.538 245.14 273.694 245.509 272.813 245.509Z" fill="#E4E4E4"/>
<path d="M250.264 174.476L139.668 74.6628H65.3672V73.1924H140.183L251.17 173.358L250.264 174.476Z" fill="#2F2E41"/>
<path d="M65.3671 85.6912C71.5245 85.6912 76.516 80.4245 76.516 73.9277C76.516 67.4309 71.5245 62.1642 65.3671 62.1642C59.2098 62.1642 54.2183 67.4309 54.2183 73.9277C54.2183 80.4245 59.2098 85.6912 65.3671 85.6912Z" fill="#8B5CF6"/>
<path d="M105.116 113.495H3.31991C2.88394 113.495 2.45223 113.405 2.04944 113.229C1.64665 113.053 1.28066 112.795 0.972379 112.469C0.664097 112.144 0.419557 111.758 0.252716 111.333C0.0858754 110.908 0 110.452 0 109.992C0 109.532 0.0858754 109.077 0.252716 108.652C0.419557 108.227 0.664097 107.841 0.972379 107.515C1.28066 107.19 1.64665 106.932 2.04944 106.756C2.45223 106.58 2.88394 106.489 3.31991 106.489H105.116C105.552 106.489 105.984 106.58 106.386 106.756C106.789 106.932 107.155 107.19 107.463 107.515C107.772 107.841 108.016 108.227 108.183 108.652C108.35 109.077 108.436 109.532 108.436 109.992C108.436 110.452 108.35 110.908 108.183 111.333C108.016 111.758 107.772 112.144 107.463 112.469C107.155 112.795 106.789 113.053 106.386 113.229C105.984 113.405 105.552 113.495 105.116 113.495Z" fill="#8B5CF6"/>
<path d="M105.116 127.337H3.32007C2.43953 127.337 1.59505 126.968 0.97242 126.311C0.349787 125.654 0 124.763 0 123.834C0 122.905 0.349787 122.014 0.97242 121.357C1.59505 120.7 2.43953 120.331 3.32007 120.331H105.116C105.997 120.331 106.841 120.7 107.464 121.357C108.086 122.014 108.436 122.905 108.436 123.834C108.436 124.763 108.086 125.654 107.464 126.311C106.841 126.968 105.997 127.337 105.116 127.337Z" fill="#8B5CF6"/>
<path d="M47.4462 141.179H3.32007C2.43953 141.179 1.59505 140.81 0.97242 140.153C0.349787 139.496 0 138.605 0 137.676C0 136.747 0.349787 135.856 0.97242 135.199C1.59505 134.542 2.43953 134.173 3.32007 134.173H47.4462C48.3267 134.173 49.1712 134.542 49.7938 135.199C50.4165 135.856 50.7663 136.747 50.7663 137.676C50.7663 138.605 50.4165 139.496 49.7938 140.153C49.1712 140.81 48.3267 141.179 47.4462 141.179Z" fill="#8B5CF6"/>
<path d="M279.585 111.194L390.572 11.028H465.388V12.4983H391.087L280.491 112.311L279.585 111.194Z" fill="#2F2E41"/>
<path d="M465.388 23.527C471.545 23.527 476.537 18.2603 476.537 11.7635C476.537 5.2667 471.545 0 465.388 0C459.231 0 454.239 5.2667 454.239 11.7635C454.239 18.2603 459.231 23.527 465.388 23.527Z" fill="#8B5CF6"/>
<path d="M541.194 50.9186H439.398C438.962 50.9193 438.529 50.8292 438.126 50.6534C437.723 50.4777 437.356 50.2198 437.047 49.8944C436.739 49.5691 436.494 49.1827 436.326 48.7574C436.159 48.3321 436.073 47.8761 436.073 47.4157C436.073 46.9553 436.159 46.4994 436.326 46.074C436.494 45.6487 436.739 45.2623 437.047 44.937C437.356 44.6117 437.723 44.3537 438.126 44.178C438.529 44.0022 438.962 43.9121 439.398 43.9128H541.194C541.63 43.9121 542.063 44.0022 542.466 44.178C542.869 44.3537 543.236 44.6117 543.544 44.937C543.853 45.2623 544.098 45.6487 544.265 46.074C544.433 46.4994 544.519 46.9553 544.519 47.4157C544.519 47.8761 544.433 48.3321 544.265 48.7574C544.098 49.1827 543.853 49.5691 543.544 49.8944C543.236 50.2198 542.869 50.4777 542.466 50.6534C542.063 50.8292 541.63 50.9193 541.194 50.9186V50.9186Z" fill="#8B5CF6"/>
<path d="M541.194 64.7605H439.398C438.517 64.7605 437.673 64.3914 437.05 63.7345C436.427 63.0775 436.078 62.1865 436.078 61.2574C436.078 60.3283 436.427 59.4373 437.05 58.7803C437.673 58.1234 438.517 57.7543 439.398 57.7543H541.194C541.63 57.7543 542.061 57.8449 542.464 58.0209C542.867 58.197 543.233 58.455 543.541 58.7803C543.85 59.1056 544.094 59.4918 544.261 59.9168C544.428 60.3418 544.514 60.7973 544.514 61.2574C544.514 61.7174 544.428 62.1729 544.261 62.598C544.094 63.023 543.85 63.4092 543.541 63.7345C543.233 64.0597 542.867 64.3178 542.464 64.4938C542.061 64.6699 541.63 64.7605 541.194 64.7605Z" fill="#8B5CF6"/>
<path d="M483.524 78.6023H439.398C438.517 78.6023 437.673 78.2332 437.05 77.5762C436.427 76.9193 436.078 76.0283 436.078 75.0992C436.078 74.1701 436.427 73.2791 437.05 72.6221C437.673 71.9652 438.517 71.5961 439.398 71.5961H483.524C484.404 71.5961 485.249 71.9652 485.871 72.6221C486.494 73.2791 486.844 74.1701 486.844 75.0992C486.844 76.0283 486.494 76.9193 485.871 77.5762C485.249 78.2332 484.404 78.6023 483.524 78.6023V78.6023Z" fill="#8B5CF6"/>
<path d="M461.385 332.196C460.812 331.538 460.382 330.754 460.126 329.901C459.87 329.048 459.795 328.146 459.905 327.259C460.015 326.372 460.309 325.521 460.764 324.767C461.22 324.012 461.827 323.372 462.542 322.892L457.789 301.73L467.849 305.608L470.821 325.109C471.506 326.431 471.708 327.972 471.388 329.44C471.069 330.908 470.25 332.201 469.087 333.075C467.924 333.949 466.497 334.342 465.078 334.18C463.658 334.018 462.345 333.312 461.385 332.196V332.196Z" fill="#9E616A"/>
<path d="M437.192 243.515L441.23 254.47C441.23 254.47 439.499 265.425 442.383 267.86C445.267 270.294 444.114 270.294 444.114 272.12C444.213 273.43 444.572 274.703 445.169 275.856C445.765 277.009 446.585 278.017 447.574 278.815C449.882 280.64 460.264 317.766 460.264 317.766H470.647C470.311 314.936 470.311 312.074 470.647 309.245C471.224 304.985 468.916 294.03 467.763 292.204C466.609 290.378 467.763 287.944 467.763 284.292C467.763 280.641 465.455 278.815 465.455 272.729C465.455 266.643 458.534 219.171 459.111 213.694C459.687 208.216 453.343 203.347 453.343 203.347H447.574L437.192 243.515Z" fill="#E6E7E8"/>
<path d="M412.763 266.751L403.166 311.939L464.662 307.903L447.94 263.524L412.763 266.751Z" fill="#9E616A"/>
<path d="M546.81 436.589C544.979 443.572 542.121 450.209 538.339 456.257C529.889 469.739 517.796 480.048 504.504 488.3C503.583 488.878 502.649 489.443 501.715 490H492.391L492.066 489.214V489.207L491.687 488.3L491.639 488.193L491.619 488.3L491.247 490H486.669C486.29 489.436 485.918 488.871 485.552 488.3C485.017 487.464 484.503 486.621 484.015 485.763C483.155 484.264 482.386 482.708 481.713 481.105C481.632 480.927 481.564 480.748 481.496 480.57L481.801 480.219L480.535 474.375L483.081 473.932L480.291 464.852C480.393 464.516 480.508 464.18 480.63 463.845C482.194 459.665 485.132 456.543 488.619 453.921C492.208 451.213 496.386 449.041 500.225 446.784C502.026 445.719 503.8 444.598 505.527 443.412V443.405C507.734 441.897 509.876 440.285 511.952 438.568C511.988 438.544 512.022 438.518 512.054 438.489C512.083 438.468 512.11 438.444 512.135 438.418C521.444 430.744 529.322 421.313 535.367 410.605C535.368 410.605 535.369 410.605 535.369 410.604C535.37 410.604 535.371 410.604 535.372 410.603C535.372 410.602 535.373 410.601 535.373 410.6C535.373 410.6 535.374 410.599 535.374 410.598C535.577 410.255 535.766 409.912 535.956 409.562V409.555C538.431 405.062 540.562 400.367 542.327 395.516V395.509C542.463 395.152 542.585 394.794 542.713 394.437C542.889 394.752 543.059 395.066 543.221 395.38C543.222 395.38 543.223 395.38 543.224 395.381C543.225 395.381 543.225 395.382 543.226 395.382C543.227 395.383 543.227 395.384 543.227 395.385C543.228 395.386 543.228 395.386 543.228 395.387C549.796 407.783 550.419 422.715 546.81 436.589Z" fill="#F0F0F0"/>
<path d="M543.228 395.387C543.294 402.003 542.642 408.604 541.285 415.063C540.675 418.019 539.915 420.938 539.01 423.808C537.251 429.422 534.953 434.833 532.151 439.954C531.995 440.233 531.846 440.504 531.683 440.775V440.783C530.486 442.913 529.186 444.978 527.79 446.97C525.677 450.142 523.067 452.911 520.071 455.157C517.624 456.863 514.857 457.991 511.959 458.465C511.418 458.572 510.862 458.651 510.3 458.722C508.059 459.001 505.743 459.108 503.523 459.608C502.398 459.842 501.302 460.214 500.259 460.715C496.684 462.466 494.673 466.131 493.793 470.046C493.637 470.732 493.515 471.425 493.42 472.118C492.682 477.44 493.495 482.97 493.075 488.3C493.027 488.864 492.966 489.436 492.892 490H492.391L492.066 489.214V489.207C492.1 488.907 492.127 488.607 492.154 488.3C492.316 485.681 492.337 483.055 492.215 480.434C492.188 479.255 492.168 478.069 492.181 476.883C492.195 475.933 492.228 474.983 492.296 474.04V474.032C492.344 473.447 492.398 472.868 492.472 472.289C492.687 470.517 493.101 468.779 493.705 467.11C494.294 465.39 495.221 463.821 496.425 462.506C497.629 461.191 499.083 460.159 500.692 459.479C501.675 459.091 502.688 458.792 503.719 458.586C505.987 458.129 508.33 458.015 510.612 457.715C510.856 457.686 511.099 457.65 511.336 457.608C511.641 457.558 511.939 457.5 512.237 457.443C515.222 456.884 518.042 455.595 520.471 453.678C523.356 451.268 525.865 448.394 527.905 445.162C529.016 443.483 530.072 441.769 531.054 440.004C531.054 440.003 531.054 440.002 531.054 440.001C531.054 440 531.055 439.999 531.056 439.999C531.056 439.998 531.057 439.998 531.058 439.997C531.059 439.997 531.06 439.997 531.06 439.997C531.108 439.911 531.155 439.832 531.203 439.747L531.209 439.732C535.421 432.139 538.495 423.904 540.323 415.32C540.384 415.006 540.452 414.691 540.52 414.377C541.776 408.179 542.383 401.854 542.327 395.516V395.509C542.327 395.209 542.321 394.916 542.314 394.616C542.3 394.001 543.201 393.866 543.214 394.48C543.221 394.78 543.228 395.08 543.221 395.38C543.222 395.38 543.223 395.38 543.224 395.381C543.225 395.381 543.225 395.382 543.226 395.382C543.227 395.383 543.227 395.384 543.228 395.385C543.228 395.386 543.228 395.386 543.228 395.387V395.387Z" fill="white"/>
<path d="M531.297 440.582C533.877 441.965 536.839 442.335 539.654 441.626C542.469 440.917 544.953 439.176 546.663 436.713C547.008 436.213 546.288 435.625 545.943 436.125C544.355 438.422 542.04 440.044 539.418 440.698C536.795 441.352 534.038 440.996 531.642 439.693C531.121 439.411 530.779 440.301 531.297 440.582V440.582Z" fill="white"/>
<path d="M512.324 457.728C510.438 451.812 510.736 445.363 513.156 439.667C513.397 439.103 512.554 438.74 512.314 439.303C509.806 445.235 509.509 451.946 511.484 458.098C511.673 458.685 512.511 458.311 512.324 457.728V457.728Z" fill="white"/>
<path d="M540.781 414.465C539.677 414.149 538.664 413.549 537.835 412.719C537.005 411.889 536.383 410.854 536.026 409.707C535.845 409.119 535.006 409.493 535.186 410.078C535.587 411.342 536.274 412.484 537.189 413.404C538.104 414.324 539.219 414.993 540.436 415.353C540.547 415.397 540.671 415.395 540.781 415.346C540.892 415.297 540.98 415.206 541.029 415.091C541.074 414.973 541.074 414.841 541.027 414.724C540.981 414.607 540.892 414.514 540.781 414.465H540.781Z" fill="white"/>
<path d="M505.527 443.405V443.412C505.317 448.513 504.712 453.589 503.719 458.586V458.593C503.665 458.936 503.59 459.272 503.523 459.608C501.888 467.337 499.597 474.896 496.677 482.191C495.871 484.249 495.027 486.285 494.145 488.3C493.901 488.871 493.65 489.436 493.393 490H492.391L492.066 489.214V489.207L491.687 488.3L491.639 488.193L491.619 488.3L491.247 490H481.564L479.682 488.3L476.939 485.821L480.772 481.405L481.401 480.677L481.496 480.569L481.801 480.219L480.535 474.375L483.081 473.932L480.291 464.852L478.971 460.558L478.639 459.479L476.709 453.199L470.886 454.35L469.938 450.849C471.683 446.58 473.136 442.185 474.285 437.696C474.292 437.661 474.305 437.632 474.312 437.596C477.389 425.507 478.312 412.919 477.034 400.474V400.467C476.993 400.067 476.946 399.66 476.892 399.267V399.253C476.311 394.095 475.333 388.996 473.967 384.007C473.872 383.628 473.764 383.256 473.662 382.885C473.974 383.028 474.278 383.163 474.59 383.306L474.596 383.314H474.61C475.104 383.542 475.599 383.785 476.079 384.042C487.631 389.965 496.128 401.082 500.956 413.898C500.97 413.934 500.983 413.963 500.997 413.999C503.516 420.717 505.017 427.813 505.445 435.024C505.608 437.814 505.635 440.612 505.527 443.405V443.405Z" fill="#F0F0F0"/>
<path d="M487.956 490H486.886C486.547 489.421 486.182 488.857 485.816 488.3C485.234 487.435 484.633 486.59 484.015 485.763C483.48 485.049 482.945 484.342 482.41 483.634C481.855 482.898 481.306 482.163 480.771 481.405L481.401 480.677C481.503 480.819 481.604 480.962 481.713 481.105C483.446 483.513 485.322 485.828 486.926 488.3C487.285 488.857 487.631 489.421 487.956 490Z" fill="white"/>
<path d="M473.437 383.284C473.614 383.52 473.796 383.763 473.966 384.006C475.286 385.813 476.534 387.678 477.71 389.6C479.804 392.99 481.664 396.536 483.276 400.209C483.404 400.495 483.533 400.788 483.655 401.081C487.103 409.106 489.351 417.647 490.318 426.4C490.331 426.486 490.338 426.564 490.345 426.65C490.568 428.693 490.713 430.744 490.778 432.801C490.994 436.676 490.631 440.563 489.702 444.318C489.566 444.811 489.417 445.297 489.255 445.768C488.847 446.924 488.337 448.036 487.731 449.091C487.296 449.86 486.812 450.597 486.282 451.298C485.964 451.727 485.632 452.148 485.28 452.556C485.077 452.791 484.867 453.027 484.657 453.263C484.481 453.441 484.312 453.627 484.136 453.806C482.308 455.678 480.29 457.414 478.638 459.478L478.969 460.557C480.561 458.428 482.612 456.664 484.461 454.806C485.621 453.655 486.678 452.392 487.616 451.034C487.738 450.848 487.867 450.662 487.982 450.469C488.609 449.502 489.151 448.476 489.6 447.405C489.83 446.869 490.04 446.319 490.23 445.747C491.336 442.053 491.84 438.188 491.719 434.316C491.698 431.836 491.557 429.358 491.299 426.893C491.272 426.572 491.239 426.257 491.198 425.936C490.511 420.068 489.259 414.289 487.46 408.689C485.184 401.585 482.053 394.819 478.143 388.556C477.026 386.763 475.841 385.013 474.589 383.305C474.426 383.07 474.257 382.841 474.081 382.605C473.722 382.119 473.079 382.798 473.437 383.284Z" fill="white"/>
<path d="M490.875 426.983C493.725 426.448 496.301 424.862 498.144 422.508C499.987 420.154 500.977 417.185 500.937 414.132C500.934 414.008 500.886 413.889 500.802 413.802C500.718 413.714 500.605 413.664 500.487 413.663C500.369 413.661 500.255 413.708 500.169 413.794C500.083 413.879 500.032 413.996 500.027 414.121C500.069 416.964 499.146 419.729 497.426 421.917C495.705 424.106 493.3 425.573 490.644 426.055C490.067 426.16 490.302 427.088 490.875 426.983V426.983Z" fill="white"/>
<path d="M485.51 452.726C480.629 449.2 477.186 443.863 475.869 437.777C475.739 437.174 474.859 437.419 474.989 438.021C476.371 444.351 479.964 449.898 485.051 453.556C485.536 453.904 485.993 453.073 485.51 452.726V452.726Z" fill="white"/>
<path d="M483.546 400.105C482.484 400.555 481.333 400.719 480.197 400.583C479.06 400.447 477.974 400.016 477.034 399.327C476.554 398.973 476.098 399.804 476.575 400.156C477.617 400.912 478.817 401.387 480.073 401.54C481.328 401.693 482.6 401.519 483.777 401.034C483.891 400.998 483.989 400.918 484.049 400.809C484.109 400.7 484.128 400.571 484.101 400.448C484.07 400.325 483.994 400.22 483.89 400.156C483.786 400.092 483.662 400.074 483.546 400.105V400.105Z" fill="white"/>
<path d="M423.003 475.31H416.095L412.809 447.196L423.004 447.196L423.003 475.31Z" fill="#9E616A"/>
<path d="M426.719 489.15H421.817L420.942 484.267L418.701 489.15H405.7C405.077 489.15 404.47 488.94 403.968 488.55C403.466 488.16 403.096 487.612 402.91 486.984C402.725 486.356 402.734 485.682 402.938 485.061C403.141 484.439 403.527 483.902 404.04 483.529L414.422 475.963V471.027L425.342 471.714L426.719 489.15Z" fill="#2F2E41"/>
<path d="M488.293 471.684L481.541 473.229L472.681 446.489L482.645 444.209L488.293 471.684Z" fill="#9E616A"/>
<path d="M494.705 484.378L489.915 485.474L488.079 480.898L486.87 486.171L474.165 489.079C473.556 489.219 472.92 489.149 472.352 488.881C471.783 488.612 471.31 488.159 471.003 487.587C470.695 487.015 470.569 486.354 470.643 485.701C470.717 485.048 470.986 484.437 471.412 483.958L480.038 474.242L479.046 469.417L489.856 467.647L494.705 484.378Z" fill="#2F2E41"/>
<path d="M536.944 489.15C536.945 489.262 536.924 489.372 536.884 489.476C536.843 489.579 536.784 489.673 536.709 489.752C536.634 489.831 536.545 489.893 536.447 489.936C536.349 489.979 536.245 490 536.139 490H346.353C346.139 490 345.934 489.91 345.783 489.751C345.632 489.592 345.547 489.375 345.547 489.15C345.547 488.924 345.632 488.708 345.783 488.549C345.934 488.389 346.139 488.3 346.353 488.3H536.139C536.245 488.299 536.349 488.321 536.447 488.364C536.545 488.406 536.634 488.469 536.709 488.548C536.784 488.627 536.843 488.721 536.884 488.824C536.924 488.927 536.945 489.038 536.944 489.15Z" fill="#CCCCCC"/>
<path d="M401.595 349.726C406.444 377.839 407.655 389.977 407.655 389.977C407.655 389.977 404.019 394.449 406.443 397.007C408.868 399.565 406.443 404.673 406.443 404.673L411.894 466.65L416.282 465.9L426.851 464.107L430.664 463.457L428.24 405.316C428.24 405.316 430.664 400.201 429.452 398.922C428.24 397.643 430.664 389.977 430.664 389.977L433.69 329.279L452.466 395.728C452.466 395.728 450.645 398.286 452.466 400.201C454.281 402.115 457.91 411.703 457.91 411.703L469.076 452.926L470.024 456.427L475.847 455.276L482.185 454.019L483.349 453.79L485.421 453.376L486.755 453.112L487.209 453.026L489.403 452.59L488.739 449.482L488.394 447.846L478.948 403.58L478.731 402.558L478.501 401.479C478.501 401.479 479.713 398.286 477.898 396.364C477.368 395.778 476.98 395.065 476.769 394.286C476.558 393.507 476.529 392.685 476.686 391.892C476.746 391.825 476.8 391.753 476.849 391.677C477.063 391.367 477.211 391.011 477.282 390.634C477.445 389.834 477.303 388.712 476.077 387.419C475.732 387.032 475.442 386.594 475.217 386.119C473.375 382.44 472.448 374.645 472.448 374.645C472.448 374.645 470.809 312.911 465.447 303.48C465.162 302.987 459.469 293.524 459.171 293.331C453.118 289.501 403.165 294.791 403.165 294.791C403.165 294.791 400.309 302.887 400.18 303.73C399.483 308.467 397.485 325.878 401.595 349.726Z" fill="#2F2E41"/>
<path d="M401.879 332.117C402.453 331.459 402.883 330.675 403.139 329.822C403.395 328.969 403.47 328.067 403.36 327.18C403.25 326.293 402.956 325.442 402.501 324.688C402.045 323.933 401.438 323.293 400.723 322.813L405.476 301.651L395.416 305.529L392.444 325.03C391.759 326.352 391.557 327.893 391.877 329.361C392.196 330.829 393.015 332.122 394.178 332.996C395.341 333.87 396.768 334.263 398.187 334.101C399.606 333.939 400.92 333.233 401.879 332.117V332.117Z" fill="#9E616A"/>
<path d="M409.923 203.268C409.923 203.268 414.905 195.435 424.711 185.089C429.902 183.263 438.897 184.327 442.015 185.089C456.436 205.173 457.343 203.838 461.097 215.06C462.07 217.97 462.557 220.766 462.124 223.048C460.394 232.177 463.168 278.303 463.744 280.737C464.321 283.172 468.359 286.215 464.321 286.215C460.284 286.215 399.142 283.78 400.295 281.955C401.449 280.129 409.923 203.268 409.923 203.268Z" fill="#E6E7E8"/>
<path d="M415.691 203.268H409.923C409.923 203.268 403.578 208.137 404.155 213.615C404.731 219.092 397.81 266.564 397.81 272.65C397.81 278.736 395.502 280.562 395.502 284.213C395.502 287.865 396.656 290.299 395.502 292.125C394.349 293.951 392.042 304.906 392.618 309.166C392.954 311.995 392.954 314.858 392.618 317.687H403.001C403.001 317.687 413.384 280.562 415.691 278.736C416.681 277.939 417.5 276.93 418.096 275.777C418.693 274.624 419.052 273.351 419.152 272.041C419.152 270.215 417.998 270.215 420.882 267.781C423.766 265.346 422.036 254.391 422.036 254.391L426.073 243.436L415.691 203.268Z" fill="#E6E7E8"/>
<path d="M427.538 177.299C436.763 177.299 444.241 169.409 444.241 159.676C444.241 149.943 436.763 142.053 427.538 142.053C418.314 142.053 410.836 149.943 410.836 159.676C410.836 169.409 418.314 177.299 427.538 177.299Z" fill="#9E616A"/>
<path d="M415.84 192.703L414.273 185.457C413.758 183.032 413.708 180.523 414.126 178.078C414.544 175.632 415.422 173.3 416.708 171.218C417.889 169.255 418.548 166.993 418.614 164.668C418.681 162.344 418.152 160.044 417.085 158.01C415.268 154.519 412.132 152.435 408.697 152.435H408.28V151.995C408.28 145.676 412.948 141.215 417.287 140.96C417.444 139.645 418.327 138.466 419.866 137.53C423.54 135.295 430.644 134.81 436.011 137.789C436.11 136.826 436.455 135.909 437.008 135.136C437.561 134.362 438.302 133.761 439.153 133.396C440.034 133.072 440.984 133.015 441.896 133.23C441.974 131.645 442.594 130.145 443.641 129.006C445.122 127.491 447.5 126.915 450.164 127.423C453.822 128.123 457.428 130.582 460.317 134.348C462.878 137.686 464.656 141.62 466.376 145.425C468.067 149.166 469.816 153.035 472.351 156.311C475.128 159.9 478.568 162.225 482.039 162.859C486.087 163.598 490.241 161.839 492.143 158.584L492.52 157.937L492.864 158.604C495 162.745 494.126 168.435 490.786 172.133C487.791 175.451 483.09 177.14 478.216 176.65C474.09 176.236 469.928 174.385 465.846 171.151C461.791 167.938 459.283 164.387 458.393 160.595C458.143 159.422 457.964 158.233 457.857 157.037C457.581 154.529 457.321 152.161 455.858 150.418C454.545 148.851 452.512 148.172 450.709 147.659L450.355 147.559C450.291 148.265 450.081 148.948 449.741 149.559C449.4 150.171 448.938 150.697 448.385 151.101C448.053 151.312 447.689 151.46 447.308 151.538C449.399 160.415 448.54 167.21 444.752 171.741C438.359 179.39 426.074 177.817 425.554 177.747L425.208 177.699L425.191 177.332C425.144 176.346 425.03 175.365 424.849 174.396C423.09 178.869 417.171 190.698 416.379 191.891L415.84 192.703Z" fill="#2F2E41"/>
</g>
<defs>
<clipPath id="clip0_350_27">
<rect width="549" height="490" fill="white"/>
</clipPath>
</defs>
</svg>
