<svg width="47" height="47" viewBox="0 0 47 47" fill="none" xmlns="http://www.w3.org/2000/svg">
<rect width="47" height="47" rx="8" fill="#5B21B6"/>
<path d="M14.1001 27.3C13.8001 27.3 13.6001 27.2 13.4001 27L9.70015 23.3C9.50015 23.1 9.40015 22.9 9.40015 22.6C9.40015 22.3 9.50015 22.1 9.70015 21.9L11.2001 20.4C11.5001 20.1 11.9001 20 12.2001 20.2L13.0001 20.5L13.6001 19.9C13.5001 18.9 13.8001 17.8 14.6001 17L18.8001 12.8C20.5001 11.1 22.8001 10.1 25.3001 10H25.7001C26.1001 10 26.5001 10.2 26.6001 10.6C26.7001 11 26.7001 11.4 26.4001 11.7L25.9001 12.2C24.6001 13.5 23.9001 15.3 24.2001 17.1C24.2001 17.4 24.1001 17.7 23.9001 17.9L19.7001 22.1C18.9001 22.9 17.9001 23.2 16.8001 23.1L16.2001 23.7L16.5001 24.5C16.6001 24.9 16.5001 25.2 16.3001 25.5L14.8001 27C14.6001 27.2 14.4001 27.3 14.1001 27.3Z" fill="white"/>
<path d="M36.3 29.8999L25.1 19.5999L21.2 23.4999C21.1 23.5999 21.1 23.5999 21 23.6999L31.4 34.9999C32.1 35.6999 32.9 36.0999 33.9 36.0999H34C34.9 36.0999 35.8 35.6999 36.5 35.0999C37.2 34.3999 37.5 33.4999 37.5 32.4999C37.4 31.4999 37 30.5999 36.3 29.8999Z" fill="white"/>
</svg>
