<svg width="478" height="348" viewBox="0 0 478 348" fill="none" xmlns="http://www.w3.org/2000/svg">
<g clip-path="url(#clip0_145_36)">
<path opacity="0.1" d="M469.901 278.051C458.061 302.5 434.008 318.849 409.091 329.631C389.14 338.206 368.052 343.837 346.485 346.349C342.354 346.84 338.21 347.221 334.053 347.491C323.429 348.184 312.772 348.172 302.15 347.456C295.761 347.03 289.394 346.351 283.049 345.417C261.004 342.199 239.512 335.936 219.186 326.807C213.32 324.163 207.573 321.277 201.944 318.149C192.544 312.934 183.536 307.039 174.994 300.511C173.104 299.066 171.238 297.589 169.395 296.081L168.638 295.461C167.189 294.266 165.754 293.044 164.296 291.857C161.873 289.826 159.301 287.98 156.602 286.335C156.42 286.228 156.237 286.121 156.05 286.018C155.55 285.728 155.042 285.456 154.525 285.197C153.46 284.66 152.368 284.177 151.253 283.752C146.105 281.789 140.591 281.075 135.001 281.196C134.074 281.196 133.147 281.258 132.215 281.321C130.914 281.41 129.607 281.544 128.306 281.713L127.824 281.78C123.677 282.368 119.576 283.249 115.553 284.417C109.339 286.201 103.237 288.431 97.0941 290.443C94.4865 291.304 91.8744 292.125 89.24 292.861L88.6605 293.021C84.9137 294.076 81.0997 294.875 77.2447 295.412C68.4845 296.533 59.5871 295.816 51.1191 293.307L50.8249 293.222L50.2811 293.061L49.5366 292.83C48.2885 292.437 47.0508 292.007 45.8235 291.54L45.0791 291.255C43.8904 290.797 42.727 290.305 41.5889 289.778L40.8444 289.439C39.6558 288.886 38.4923 288.302 37.3542 287.686C36.9441 287.472 36.5385 287.24 36.1373 287.022C34.9248 286.344 33.7361 285.633 32.5712 284.889C31.335 284.101 30.1255 283.279 28.9428 282.423C28.396 282.03 27.8552 281.627 27.3203 281.214C24.2367 278.854 21.3492 276.247 18.686 273.421C18.5389 273.274 18.4007 273.122 18.2625 272.975C17.5538 272.208 16.8584 271.427 16.1853 270.628C15.9357 270.334 15.6861 270.04 15.4409 269.736C14.6415 268.761 13.8704 267.763 13.1274 266.743C13.016 266.596 12.909 266.444 12.8021 266.297C9.75638 262.082 7.23142 257.514 5.28218 252.692C5.21977 252.545 5.16183 252.393 5.10833 252.246C4.514 250.714 3.97166 249.157 3.48133 247.575C3.28074 246.915 3.08907 246.237 2.91968 245.577C2.86173 245.381 2.80824 245.18 2.75921 244.984C0.298646 235.29 0.0178223 225.214 0.0178223 215.195C0.0178223 214.026 0.0178223 212.859 0.0178223 211.693C0.0891429 195.487 0.338764 179.005 2.72801 163.022C2.72801 162.911 2.75921 162.799 2.77704 162.692C3.5767 157.311 4.66443 151.978 6.0355 146.714C7.47047 141.19 9.30437 135.779 11.5227 130.521C17.0189 117.585 25.0113 105.813 33.8862 94.9021C44.5843 81.7742 56.8426 69.6588 70.496 59.6623C72.4573 58.226 74.4454 56.8312 76.4602 55.4781L77.3918 54.867C77.7172 54.6484 78.0426 54.4209 78.368 54.2291C79.0367 53.7831 79.7053 53.3638 80.3828 52.94L81.1406 52.4671L82.5849 51.575L83.0306 51.3207L83.8018 50.8747L84.564 50.4286C85.4555 49.9022 86.3574 49.3878 87.2697 48.8852C91.1656 46.7113 95.1536 44.7248 99.2338 42.9256C100.437 42.3933 101.648 41.8803 102.867 41.3867C108.398 39.1322 114.081 37.2675 119.872 35.8063C122.012 35.2651 124.165 34.7892 126.331 34.3789C128.887 33.8852 131.456 33.4763 134.038 33.1522C138.148 32.6347 142.281 32.3265 146.421 32.2288C175.538 31.5195 204.949 41.0031 227.767 59.1806C236.86 66.4248 245.031 75.0028 255.243 80.5564C264.158 85.3918 274.593 87.3947 284.141 83.5897C292.031 80.4449 297.166 78.8836 306.028 79.3609C324.365 80.3946 342.443 84.1778 359.657 90.5841C360.352 90.8384 361.047 91.1016 361.738 91.3648C406.63 108.561 445.228 142.708 465.278 186.588C465.807 187.748 466.323 188.917 466.825 190.094C478.784 218.041 483.099 250.805 469.901 278.051Z" fill="#F22E2E"/>
<path opacity="0.1" d="M89.2266 123.736V292.87L88.6471 293.03C84.9004 294.085 81.0863 294.884 77.2314 295.421C68.4712 296.542 59.5738 295.825 51.1057 293.316L50.8115 293.231L50.2677 293.07L49.5233 292.839C48.2752 292.446 47.0375 292.016 45.8102 291.549L45.0657 291.264C43.8771 290.806 42.7137 290.314 41.5755 289.787L40.8311 289.448C39.6424 288.895 38.479 288.311 37.3408 287.695C36.9307 287.481 36.5251 287.249 36.1239 287.031C34.9115 286.353 33.7228 285.642 32.5579 284.898C31.3217 284.11 30.1122 283.288 28.9294 282.432C28.3827 282.039 27.8418 281.636 27.3069 281.223C24.2234 278.863 21.3359 276.256 18.6726 273.43C18.5255 273.283 18.3874 273.131 18.2492 272.984C17.5404 272.217 16.845 271.436 16.172 270.637C15.9223 270.343 15.6727 270.049 15.4276 269.745C14.6282 268.77 13.857 267.772 13.1141 266.752C13.0026 266.605 12.8957 266.453 12.7887 266.306C9.74301 262.091 7.21805 257.523 5.26881 252.701C5.20641 252.554 5.14846 252.402 5.09497 252.255C4.50063 250.723 3.9583 249.166 3.46797 247.584C3.26738 246.924 3.0757 246.246 2.90631 245.586C2.84837 245.39 2.79488 245.189 2.74584 244.993C0.28528 235.299 0.00445557 225.223 0.00445557 215.204C0.00445557 214.035 0.00445557 212.868 0.00445557 211.702C0.0757762 195.496 0.325398 179.014 2.71464 163.031C2.71464 162.92 2.74584 162.808 2.76367 162.701C3.56334 157.32 4.65106 151.987 6.02214 146.723H51.5426V123.736H60.6181V105.273H80.1511V123.736H89.2266Z" fill="#F22E2E"/>
<path opacity="0.1" d="M469.901 278.051C458.061 302.501 434.009 318.849 409.091 329.631C389.141 338.206 368.052 343.838 346.485 346.35C342.354 346.84 338.21 347.221 334.053 347.492C323.429 348.184 312.772 348.173 302.15 347.456C295.761 347.031 289.394 346.351 283.049 345.417C261.004 342.199 239.512 335.936 219.186 326.807C213.32 324.163 207.573 321.277 201.944 318.149C192.544 312.934 183.536 307.04 174.994 300.511C173.104 299.066 171.238 297.589 169.395 296.082L168.638 295.461C167.189 294.266 165.754 293.044 164.296 291.857C161.873 289.826 159.301 287.98 156.602 286.335C156.42 286.228 156.237 286.121 156.05 286.018C155.55 285.728 155.042 285.456 154.525 285.197C153.46 284.66 152.368 284.178 151.253 283.752V214.562H233.981V229.964H270.287V117.295H313.022V162.349H334.16V135.673H351.624V107.178H359.648V90.5843C360.343 90.8385 361.039 91.1017 361.729 91.3649V107.178H369.539V135.691H386.99V162.366H412.724V263.995H453.626V190.085H466.807C478.785 218.041 483.099 250.805 469.901 278.051Z" fill="#F22E2E"/>
<path opacity="0.1" d="M302.159 134.25H283.058V153.365H302.159V134.25Z" fill="#F22E2E"/>
<path opacity="0.1" d="M302.159 173.871H283.058V192.985H302.159V173.871Z" fill="#F22E2E"/>
<path opacity="0.1" d="M302.159 213.495H283.058V232.61H302.159V213.495Z" fill="#F22E2E"/>
<path opacity="0.1" d="M302.159 253.12H283.058V272.234H302.159V253.12Z" fill="#F22E2E"/>
<path opacity="0.1" d="M302.101 293H283V312.114H302.101V293Z" fill="#F22E2E"/>
<path opacity="0.1" d="M302.159 332.356V347.451C295.77 347.026 289.403 346.347 283.058 345.413V332.356H302.159Z" fill="#F22E2E"/>
<path opacity="0.1" d="M224.41 239.265H157.552V247.923H224.41V239.265Z" fill="#F22E2E"/>
<path opacity="0.1" d="M224.41 265.561H157.552V274.219H224.41V265.561Z" fill="#F22E2E"/>
<path opacity="0.1" d="M224.41 291.857V300.511H175.003C173.113 299.066 171.247 297.589 169.404 296.081L168.647 295.461C167.198 294.266 165.763 293.044 164.305 291.857H224.41Z" fill="#F22E2E"/>
<path opacity="0.1" d="M224.41 318.149V326.807H219.195C213.329 324.163 207.582 321.277 201.953 318.149H224.41Z" fill="#F22E2E"/>
<path opacity="0.1" d="M346.494 186.008H334.062V198.449H346.494V186.008Z" fill="#F22E2E"/>
<path opacity="0.1" d="M77.2581 128.028H64.826V140.469H77.2581V128.028Z" fill="#F22E2E"/>
<path opacity="0.1" d="M77.2581 156.933H64.826V169.374H77.2581V156.933Z" fill="#F22E2E"/>
<path opacity="0.1" d="M77.2581 185.834H64.826V198.275H77.2581V185.834Z" fill="#F22E2E"/>
<path opacity="0.1" d="M77.2581 214.74H64.826V227.181H77.2581V214.74Z" fill="#F22E2E"/>
<path opacity="0.1" d="M77.2581 243.645H64.826V256.086H77.2581V243.645Z" fill="#F22E2E"/>
<path opacity="0.1" d="M77.2581 272.546H64.826V284.987H77.2581V272.546Z" fill="#F22E2E"/>
<path opacity="0.1" d="M393.962 186.008H381.53V198.449H393.962V186.008Z" fill="#F22E2E"/>
<path opacity="0.1" d="M346.494 216.698H334.062V229.139H346.494V216.698Z" fill="#F22E2E"/>
<path opacity="0.1" d="M393.962 216.698H381.53V229.139H393.962V216.698Z" fill="#F22E2E"/>
<path opacity="0.1" d="M346.494 247.392H334.062V259.833H346.494V247.392Z" fill="#F22E2E"/>
<path opacity="0.1" d="M393.962 247.392H381.53V259.833H393.962V247.392Z" fill="#F22E2E"/>
<path opacity="0.1" d="M346.494 278.087H334.062V290.528H346.494V278.087Z" fill="#F22E2E"/>
<path opacity="0.1" d="M393.962 278.087H381.53V290.528H393.962V278.087Z" fill="#F22E2E"/>
<path opacity="0.1" d="M346.494 308.777H334.062V321.218H346.494V308.777Z" fill="#F22E2E"/>
<path opacity="0.1" d="M393.962 308.777H381.53V321.218H393.962V308.777Z" fill="#F22E2E"/>
<path opacity="0.1" d="M334.062 347.492V339.467H346.494V346.35L334.062 347.492Z" fill="#F22E2E"/>
<path opacity="0.1" d="M2.71912 162.705V169.843H50.2677V162.705H2.71912ZM6.95378 169.397H3.46352V163.151H6.95378V169.397ZM11.1884 169.397H7.69819V163.151H11.1884V169.397ZM15.4231 169.397H11.9329V163.151H15.4231V169.397ZM19.6578 169.397H16.1675V163.151H19.6578V169.397ZM23.8924 169.397H20.4022V163.151H23.8924V169.397ZM28.1271 169.397H24.6369V163.151H28.1271V169.397ZM32.3618 169.397H28.8715V163.151H32.3618V169.397ZM36.5964 169.397H33.1062V163.151H36.5964V169.397ZM40.8311 169.397H37.3408V163.151H40.8311V169.397ZM45.0658 169.397H41.5755V163.151H45.0658V169.397ZM49.5233 169.397H45.8102V163.151H49.5233V169.397Z" fill="#F22E2E"/>
<path opacity="0.1" d="M2.71912 183.43V190.545H50.2677V183.43H2.71912ZM6.95378 190.099H3.46352V183.876H6.95378V190.099ZM11.1884 190.099H7.69819V183.876H11.1884V190.099ZM15.4231 190.099H11.9329V183.876H15.4231V190.099ZM19.6578 190.099H16.1675V183.876H19.6578V190.099ZM23.8924 190.099H20.4022V183.876H23.8924V190.099ZM28.1271 190.099H24.6369V183.876H28.1271V190.099ZM32.3618 190.099H28.8715V183.876H32.3618V190.099ZM36.5964 190.099H33.1062V183.876H36.5964V190.099ZM40.8311 190.099H37.3408V183.876H40.8311V190.099ZM45.0658 190.099H41.5755V183.876H45.0658V190.099ZM49.5233 190.099H45.8102V183.876H49.5233V190.099Z" fill="#F22E2E"/>
<path opacity="0.1" d="M2.71912 204.15V211.265H50.2677V204.15H2.71912ZM6.95378 210.819H3.46352V204.596H6.95378V210.819ZM11.1884 210.819H7.69819V204.596H11.1884V210.819ZM15.4231 210.819H11.9329V204.596H15.4231V210.819ZM19.6578 210.819H16.1675V204.596H19.6578V210.819ZM23.8924 210.819H20.4022V204.596H23.8924V210.819ZM28.1271 210.819H24.6369V204.596H28.1271V210.819ZM32.3618 210.819H28.8715V204.596H32.3618V210.819ZM36.5964 210.819H33.1062V204.596H36.5964V210.819ZM40.8311 210.819H37.3408V204.596H40.8311V210.819ZM45.0658 210.819H41.5755V204.596H45.0658V210.819ZM49.5233 210.819H45.8102V204.596H49.5233V210.819Z" fill="#F22E2E"/>
<path opacity="0.1" d="M2.71912 224.852V231.99H50.2677V224.852H2.71912ZM6.95378 231.544H3.46352V225.299H6.95378V231.544ZM11.1884 231.544H7.69819V225.299H11.1884V231.544ZM15.4231 231.544H11.9329V225.299H15.4231V231.544ZM19.6578 231.544H16.1675V225.299H19.6578V231.544ZM23.8924 231.544H20.4022V225.299H23.8924V231.544ZM28.1271 231.544H24.6369V225.299H28.1271V231.544ZM32.3618 231.544H28.8715V225.299H32.3618V231.544ZM36.5964 231.544H33.1062V225.299H36.5964V231.544ZM40.8311 231.544H37.3408V225.299H40.8311V231.544ZM45.0658 231.544H41.5755V225.299H45.0658V231.544ZM49.5233 231.544H45.8102V225.299H49.5233V231.544Z" fill="#F22E2E"/>
<path opacity="0.1" d="M2.90186 245.59C3.07124 246.259 3.26292 246.929 3.46351 247.589V246.036H6.95376V252.281H5.09051C5.144 252.429 5.20195 252.58 5.26435 252.728H50.2855V245.59H2.90186ZM11.1884 252.281H7.69817V246.036H11.1884V252.281ZM15.4231 252.281H11.9328V246.036H15.4231V252.281ZM19.6578 252.281H16.1675V246.036H19.6578V252.281ZM23.8924 252.281H20.4022V246.036H23.8924V252.281ZM28.1271 252.281H24.6368V246.036H28.1271V252.281ZM32.3617 252.281H28.8715V246.036H32.3617V252.281ZM36.5964 252.281H33.1062V246.036H36.5964V252.281ZM40.8311 252.281H37.3408V246.036H40.8311V252.281ZM45.0657 252.281H41.5755V246.036H45.0657V252.281ZM49.5233 252.281H45.8102V246.036H49.5233V252.281Z" fill="#F22E2E"/>
<path opacity="0.1" d="M12.7842 266.311C12.8912 266.458 12.9981 266.61 13.1096 266.757H15.423V269.75C15.6682 270.049 15.9178 270.343 16.1675 270.642V266.761H19.6577V273.006H18.2447C18.3829 273.153 18.521 273.305 18.6681 273.452H50.2676V266.315L12.7842 266.311ZM23.8924 273.002H20.4021V266.757H23.8924V273.002ZM28.127 273.002H24.6368V266.757H28.127V273.002ZM32.3617 273.002H28.8714V266.757H32.3617V273.002ZM36.5964 273.002H33.1061V266.757H36.5964V273.002ZM40.831 273.002H37.3408V266.757H40.831V273.002ZM45.0657 273.002H41.5754V266.757H45.0657V273.002ZM49.5232 273.002H45.8101V266.757H49.5232V273.002Z" fill="#F22E2E"/>
<path opacity="0.1" d="M36.1239 287.031C36.5251 287.258 36.9307 287.477 37.3408 287.695V287.477H40.8311V289.448L41.5755 289.787V287.477H45.0657V291.264L45.8101 291.549V287.477H49.5233V292.83L50.2677 293.062V287.031H36.1239Z" fill="#F22E2E"/>
<path opacity="0.1" d="M182.741 100.92C182.741 100.92 172.115 100.277 173.381 107.727C173.316 108.105 173.372 108.495 173.542 108.839C173.712 109.184 173.986 109.466 174.326 109.645C174.326 109.645 174.326 109.092 175.413 109.279C175.795 109.342 176.182 109.36 176.568 109.333C177.089 109.298 177.585 109.095 177.981 108.753C177.981 108.753 180.967 107.517 182.131 102.633C182.131 102.633 182.987 101.566 182.955 101.294L181.172 102.062C181.172 102.062 181.787 103.355 181.306 104.43C181.306 104.43 181.248 102.111 180.9 102.164C180.834 102.164 179.969 102.61 179.969 102.61C179.969 102.61 181.025 104.867 180.227 106.505C180.227 106.505 180.53 103.73 179.643 102.775L178.351 103.52C178.351 103.52 179.585 105.849 178.747 107.749C178.747 107.749 178.966 104.836 178.088 103.703L176.942 104.595C176.942 104.595 178.101 106.888 177.388 108.467C177.388 108.467 177.294 105.073 176.688 104.814C176.253 105.181 175.865 105.6 175.534 106.063C175.534 106.063 176.327 107.727 175.837 108.606C175.837 108.606 175.534 106.348 175.284 106.335C175.284 106.335 174.29 107.834 174.187 108.86C174.233 107.908 174.528 106.985 175.043 106.183C174.469 106.292 173.939 106.567 173.519 106.973C173.519 106.973 173.675 105.916 175.302 105.822C175.302 105.822 176.126 104.689 176.349 104.618C176.349 104.618 174.74 104.484 173.764 104.916C173.764 104.916 174.624 103.917 176.643 104.372L177.771 103.449C177.771 103.449 175.654 103.159 174.758 103.48C174.758 103.48 175.788 102.588 178.074 103.239L179.305 102.503C178.36 102.296 177.392 102.212 176.425 102.253C176.425 102.253 177.557 101.642 179.666 102.307L180.557 101.91C180.557 101.91 179.22 101.651 178.85 101.611C178.48 101.571 178.44 101.464 178.44 101.464C179.277 101.324 180.137 101.42 180.923 101.74C180.923 101.74 182.773 101.036 182.741 100.92Z" fill="#F22E2E"/>
<path opacity="0.1" d="M154.846 137.172C154.846 137.172 151.213 147.182 158.711 148.096C159.054 148.265 159.442 148.322 159.819 148.257C160.196 148.192 160.543 148.009 160.81 147.735C160.81 147.735 160.289 147.561 160.77 146.584C160.939 146.237 161.067 145.872 161.153 145.496C161.266 144.985 161.21 144.451 160.993 143.975C160.993 143.975 160.659 140.759 156.308 138.256C156.308 138.256 155.533 137.127 155.261 137.083L155.484 139.023C155.484 139.023 156.897 138.8 157.793 139.568C157.793 139.568 155.564 138.965 155.506 139.313C155.506 139.38 155.671 140.335 155.671 140.335C155.671 140.335 158.131 139.96 159.473 141.191C159.473 141.191 156.897 140.112 155.733 140.696L156.081 142.115C156.081 142.115 158.662 141.597 160.244 142.935C160.244 142.935 157.516 141.905 156.179 142.422L156.709 143.761C156.709 143.761 159.237 143.315 160.547 144.425C160.547 144.425 157.267 143.533 156.852 144.059C157.08 144.579 157.371 145.069 157.717 145.518C157.717 145.518 159.54 145.233 160.24 145.964C160.24 145.964 157.989 145.612 157.908 145.844C157.908 145.844 159.063 147.227 160.017 147.628C159.121 147.311 158.324 146.765 157.703 146.045C157.644 146.628 157.757 147.216 158.029 147.735C158.029 147.735 157.057 147.289 157.427 145.705C157.427 145.705 156.571 144.595 156.571 144.367C156.571 144.367 155.983 145.871 156.125 146.932C156.125 146.932 155.412 145.821 156.42 144.015L155.858 142.677C155.858 142.677 154.966 144.626 155.029 145.581C155.029 145.581 154.476 144.336 155.742 142.324L155.39 140.937C154.923 141.78 154.568 142.679 154.333 143.613C154.333 143.613 154.066 142.351 155.301 140.518L155.171 139.563C155.171 139.563 154.547 140.759 154.4 141.12C154.253 141.481 154.142 141.468 154.142 141.468C154.244 140.624 154.579 139.826 155.109 139.162C155.109 139.162 154.966 137.172 154.846 137.172Z" fill="#F22E2E"/>
<path opacity="0.1" d="M225.289 128.732C225.289 128.732 221.66 138.76 229.153 139.652C229.498 139.821 229.887 139.877 230.265 139.811C230.642 139.745 230.99 139.562 231.257 139.287C231.257 139.287 230.731 139.113 231.217 138.14C231.387 137.793 231.514 137.426 231.596 137.047C231.71 136.537 231.655 136.003 231.44 135.526C231.44 135.526 231.106 132.31 226.755 129.808C226.755 129.808 225.975 128.683 225.703 128.639L225.93 130.575C225.93 130.575 227.344 130.356 228.239 131.123C228.239 131.123 226.011 130.521 225.948 130.865C225.948 130.936 226.113 131.886 226.113 131.886C226.113 131.886 228.574 131.516 229.92 132.743C229.92 132.743 227.344 131.668 226.176 132.248L226.528 133.671C226.528 133.671 229.109 133.149 230.691 134.491C230.691 134.491 227.959 133.456 226.621 133.974L227.152 135.312C227.152 135.312 229.679 134.866 230.99 135.977C230.99 135.977 227.714 135.085 227.294 135.615C227.53 136.137 227.829 136.627 228.186 137.074C228.186 137.074 230.005 136.784 230.709 137.52C230.709 137.52 228.458 137.168 228.378 137.404C228.378 137.404 229.528 138.783 230.482 139.188C229.586 138.873 228.79 138.326 228.173 137.605C228.114 138.188 228.225 138.775 228.494 139.296C228.494 139.296 227.526 138.849 227.896 137.27C227.896 137.27 227.04 136.155 227.036 135.932C227.036 135.932 226.452 137.44 226.59 138.497C226.59 138.497 225.877 137.391 226.884 135.58L226.323 134.241C226.323 134.241 225.431 136.191 225.494 137.141C225.494 137.141 224.941 135.901 226.207 133.889L225.85 132.497C225.384 133.34 225.029 134.24 224.794 135.174C224.794 135.174 224.531 133.911 225.766 132.078L225.636 131.123C225.636 131.123 225.012 132.319 224.861 132.68C224.709 133.042 224.602 133.028 224.602 133.028C224.708 132.185 225.044 131.387 225.574 130.722C225.574 130.722 225.413 128.737 225.289 128.732Z" fill="#F22E2E"/>
<path opacity="0.1" d="M124.593 210.578C124.593 210.578 120.96 220.592 128.457 221.507C128.801 221.676 129.189 221.732 129.567 221.666C129.944 221.6 130.291 221.417 130.557 221.141C130.557 221.141 130.035 220.967 130.517 219.995C130.688 219.647 130.817 219.28 130.9 218.902C131.015 218.391 130.959 217.856 130.74 217.381C130.74 217.381 130.405 214.165 126.055 211.667C126.055 211.667 125.279 210.538 125.007 210.493L125.23 212.429C125.23 212.429 126.648 212.211 127.539 212.978C127.539 212.978 125.31 212.376 125.252 212.719C125.252 212.791 125.417 213.741 125.417 213.741C125.417 213.741 127.878 213.371 129.22 214.597C129.22 214.597 126.643 213.522 125.48 214.102L125.827 215.525C125.827 215.525 128.408 215.003 129.991 216.346C129.991 216.346 127.263 215.311 125.926 215.828L126.456 217.167C126.456 217.167 128.983 216.721 130.294 217.831C130.294 217.831 127.018 216.939 126.599 217.47C126.827 217.989 127.117 218.479 127.463 218.929C127.463 218.929 129.287 218.639 129.991 219.375C129.991 219.375 127.735 219.022 127.655 219.259C127.655 219.259 128.81 220.637 129.763 221.043C128.868 220.728 128.07 220.184 127.45 219.464C127.391 220.046 127.504 220.632 127.775 221.15C127.775 221.15 126.804 220.704 127.174 219.125C127.174 219.125 126.322 218.01 126.318 217.787C126.318 217.787 125.729 219.294 125.872 220.352C125.872 220.352 125.159 219.245 126.166 217.434L125.605 216.096C125.605 216.096 124.713 218.045 124.78 218.996C124.78 218.996 124.227 217.755 125.493 215.744L125.137 214.356C124.669 215.199 124.314 216.098 124.08 217.033C124.08 217.033 123.813 215.766 125.047 213.937L124.918 212.978C124.918 212.978 124.294 214.173 124.147 214.535C124 214.896 123.888 214.883 123.888 214.883C123.991 214.038 124.328 213.24 124.86 212.577C124.86 212.577 124.713 210.578 124.593 210.578Z" fill="#F22E2E"/>
<path opacity="0.1" d="M110.177 116.193C110.177 116.193 106.549 126.203 114.042 127.118C114.386 127.286 114.774 127.342 115.152 127.277C115.53 127.213 115.877 127.03 116.146 126.756C116.146 126.756 115.62 126.582 116.106 125.606C116.274 125.257 116.401 124.89 116.484 124.513C116.599 124.004 116.544 123.471 116.328 122.996C116.328 122.996 115.994 119.78 111.639 117.277C111.639 117.277 110.863 116.149 110.592 116.104L110.819 118.045C110.819 118.045 112.232 117.822 113.123 118.589C113.123 118.589 110.895 117.987 110.837 118.335C110.837 118.401 111.002 119.356 111.002 119.356C111.002 119.356 113.462 118.981 114.808 120.213C114.808 120.213 112.232 119.133 111.064 119.717L111.412 121.136C111.412 121.136 113.993 120.614 115.58 121.957C115.58 121.957 112.847 120.922 111.51 121.444L112.04 122.782C112.04 122.782 114.568 122.336 115.878 123.451C115.878 123.451 112.602 122.559 112.183 123.085C112.411 123.605 112.702 124.094 113.048 124.544C113.048 124.544 114.871 124.258 115.575 124.99C115.575 124.99 113.324 124.638 113.244 124.87C113.244 124.87 114.394 126.252 115.348 126.654C114.453 126.335 113.655 125.79 113.034 125.07C112.975 125.654 113.088 126.241 113.36 126.761C113.36 126.761 112.388 126.315 112.762 124.731C112.762 124.731 111.907 123.621 111.902 123.393C111.902 123.393 111.318 124.896 111.456 125.958C111.456 125.958 110.739 124.847 111.751 123.041L111.184 121.702C111.184 121.702 110.293 123.652 110.36 124.606C110.36 124.606 109.807 123.362 111.073 121.35L110.716 119.963C110.25 120.805 109.895 121.705 109.66 122.639C109.66 122.639 109.397 121.377 110.627 119.543L110.502 118.589C110.502 118.589 109.874 119.784 109.727 120.141C109.58 120.498 109.468 120.494 109.468 120.494C109.571 119.649 109.908 118.851 110.44 118.187C110.44 118.187 110.302 116.193 110.177 116.193Z" fill="#F22E2E"/>
<path opacity="0.1" d="M137.118 170.704C137.118 170.704 139.922 180.963 146.573 177.395C146.951 177.334 147.3 177.156 147.571 176.885C147.841 176.615 148.019 176.265 148.08 175.887C148.08 175.887 147.554 176.048 147.389 174.972C147.326 174.591 147.218 174.218 147.068 173.862C146.87 173.377 146.517 172.973 146.065 172.711C146.065 172.711 143.939 170.275 138.933 170.739C138.933 170.739 137.649 170.271 137.399 170.391L138.701 171.841C138.701 171.841 139.731 170.846 140.903 170.949C140.903 170.949 138.723 171.752 138.884 172.06C138.919 172.122 139.606 172.8 139.606 172.8C139.606 172.8 141.389 171.074 143.207 171.301C143.207 171.301 140.484 171.908 139.869 173.059L140.97 174.018C140.97 174.018 142.78 172.104 144.848 172.283C144.848 172.283 142.017 173.014 141.224 174.21L142.436 175.008C142.436 175.008 144.219 173.175 145.958 173.34C145.958 173.34 142.775 174.513 142.726 175.173C143.213 175.466 143.734 175.698 144.277 175.865C144.277 175.865 145.615 174.58 146.591 174.763C146.591 174.763 144.545 175.775 144.616 176.012C144.616 176.012 146.354 176.458 147.357 176.244C146.444 176.503 145.479 176.518 144.558 176.288C144.845 176.799 145.276 177.213 145.797 177.479C145.797 177.479 144.745 177.671 144.139 176.168C144.139 176.168 142.802 175.753 142.659 175.566C142.659 175.566 143.051 177.136 143.774 177.921C143.774 177.921 142.552 177.426 142.334 175.365L141.099 174.593C141.099 174.593 141.505 176.694 142.093 177.439C142.093 177.439 140.925 176.743 140.8 174.37L139.713 173.442C139.819 174.405 140.049 175.35 140.399 176.253C140.399 176.253 139.459 175.361 139.41 173.166L138.754 172.457C138.754 172.457 138.933 173.795 139.017 174.174C139.102 174.553 139.017 174.62 139.017 174.62C138.616 173.871 138.431 173.024 138.482 172.176C138.482 172.176 137.221 170.637 137.118 170.704Z" fill="#F22E2E"/>
<path opacity="0.1" d="M213.182 179.866C213.182 179.866 215.986 190.126 222.632 186.557C223.011 186.498 223.362 186.321 223.633 186.05C223.905 185.779 224.083 185.428 224.143 185.049C224.143 185.049 223.613 185.21 223.448 184.157C223.388 183.775 223.282 183.402 223.131 183.046C222.93 182.563 222.576 182.158 222.124 181.896C222.124 181.896 219.998 179.46 214.992 179.928C214.992 179.928 213.708 179.456 213.463 179.576L214.76 181.026C214.76 181.026 215.79 180.031 216.962 180.134C216.962 180.134 214.782 180.937 214.947 181.244C214.978 181.307 215.669 181.985 215.669 181.985C215.669 181.985 217.452 180.258 219.271 180.486C219.271 180.486 216.543 181.093 215.928 182.243L217.033 183.203C217.033 183.203 218.816 181.289 220.907 181.467C220.907 181.467 218.081 182.199 217.287 183.394L218.5 184.193C218.5 184.193 220.283 182.359 222.017 182.525C222.017 182.525 218.834 183.698 218.79 184.358C219.275 184.651 219.794 184.883 220.336 185.049C220.336 185.049 221.674 183.765 222.65 183.947C222.65 183.947 220.608 184.96 220.675 185.196C220.675 185.196 222.413 185.643 223.421 185.428C222.506 185.687 221.54 185.703 220.617 185.473C220.905 185.982 221.336 186.396 221.856 186.664C221.856 186.664 220.804 186.856 220.198 185.353C220.198 185.353 218.861 184.938 218.723 184.75C218.723 184.75 219.11 186.321 219.833 187.106C219.833 187.106 218.611 186.611 218.393 184.55L217.158 183.769C217.158 183.769 217.564 185.87 218.157 186.615C218.157 186.615 216.989 185.919 216.864 183.546L215.772 182.618C215.878 183.581 216.11 184.526 216.463 185.428C216.463 185.428 215.518 184.536 215.469 182.342L214.813 181.632C214.813 181.632 214.992 182.971 215.076 183.35C215.161 183.729 215.076 183.796 215.076 183.796C214.675 183.046 214.49 182.2 214.541 181.351C214.541 181.351 213.284 179.799 213.182 179.866Z" fill="#F22E2E"/>
<path d="M184.645 282.9C184.645 282.9 207.77 275.107 202.983 247.495L173.608 239.863L166.788 262.519L184.645 282.9Z" fill="#CED7E7"/>
<path opacity="0.1" d="M166.788 262.519L184.64 282.9C184.64 282.9 207.766 275.107 202.979 247.495L166.788 262.519Z" fill="black"/>
<path d="M69.6134 58.5294C69.6134 58.5294 72.7337 63.6101 76.9996 61.072C81.2654 58.5338 77.1734 51.5215 77.1734 51.5215C77.1734 51.5215 69.0027 50.4019 69.6134 58.5294Z" fill="#FED253"/>
<path opacity="0.1" d="M76.9996 61.0719C76.4964 61.3978 75.932 61.6173 75.341 61.717C74.75 61.8167 74.1449 61.7945 73.5628 61.6518C71.9982 61.2548 70.7947 60.0504 70.1483 59.2609C69.9555 59.0296 69.7769 58.7867 69.6134 58.5338C69.395 55.6343 70.2954 53.908 71.5435 52.8909C73.2597 51.4947 75.6356 51.4367 76.6608 51.4814C76.9773 51.4814 77.16 51.526 77.16 51.526L77.2447 51.6687C77.3651 51.8962 77.6281 52.4003 77.9089 53.0738C78.8628 55.2819 79.9995 59.2832 76.9996 61.0719Z" fill="black"/>
<path d="M186.918 246.197L202.965 247.495L232.831 247.74L209.299 276.735C209.299 276.735 201.833 277.141 200.295 278.194C198.757 279.247 177.165 278.685 177.165 278.685L173.679 263.821L186.918 246.197Z" fill="#FFA2A2"/>
<path opacity="0.05" d="M186.918 246.197L202.965 247.495L232.831 247.74L209.299 276.735C209.299 276.735 201.833 277.141 200.295 278.194C198.757 279.247 177.165 278.685 177.165 278.685L173.679 263.821L186.918 246.197Z" fill="black"/>
<path d="M170.688 168.241L174.419 174.575L175.23 185.62C175.23 185.62 177.829 195.037 179.777 197.798C181.725 200.559 182.536 207.87 182.536 207.87C182.536 207.87 183.348 214.691 184.319 216.15C185.291 217.608 186.593 228.194 186.593 228.194C186.593 228.194 195.196 245.407 202.983 247.517C202.983 247.517 164.358 260.186 184.645 282.922C184.645 282.922 170.202 286.491 166.792 282.436C163.382 278.381 154.458 218.286 154.458 218.286L157.218 167.612L170.688 168.241Z" fill="#CED7E7"/>
<path opacity="0.05" d="M170.688 168.241L174.419 174.575L175.23 185.62C175.23 185.62 177.829 195.037 179.777 197.798C181.725 200.559 182.536 207.87 182.536 207.87C182.536 207.87 183.348 214.691 184.319 216.15C185.291 217.608 186.593 228.194 186.593 228.194C186.593 228.194 195.196 245.407 202.983 247.517C202.983 247.517 164.358 260.186 184.645 282.922C184.645 282.922 170.202 286.491 166.792 282.436C163.382 278.381 154.458 218.286 154.458 218.286L157.218 167.612L170.688 168.241Z" fill="black"/>
<path d="M123.826 106.509C122.742 112.136 123.064 117.943 124.762 123.415L118.753 140.629C118.753 140.629 72.9878 115.132 76.8837 108.958C79.0902 105.456 79.371 96.1913 79.1927 88.8311C79.0635 83.2374 78.6667 78.7498 78.6667 78.7498C78.6667 78.7498 134.832 84.2767 127.356 97.1058C125.665 100.022 124.472 103.2 123.826 106.509Z" fill="#FFA2A2"/>
<path opacity="0.1" d="M127.356 97.1058C125.665 100.022 124.472 103.2 123.826 106.509C115.491 109.177 106.49 108.874 98.3526 105.652C90.2156 102.429 83.4452 96.4851 79.1927 88.8311C79.0634 83.2374 78.6667 78.7498 78.6667 78.7498C78.6667 78.7498 134.818 84.2767 127.356 97.1058Z" fill="black"/>
<path d="M150.076 69.4939C150.08 75.4484 148.68 81.3198 145.99 86.6309C143.299 91.9419 139.394 96.5426 134.592 100.059C129.791 103.576 124.227 105.909 118.355 106.869C112.483 107.828 106.467 107.388 100.796 105.583C95.1259 103.778 89.9612 100.66 85.7218 96.4818C81.4824 92.3035 78.2881 87.1831 76.3985 81.5368C74.5089 75.8906 73.9774 69.8778 74.847 63.9872C75.7167 58.0966 77.9631 52.4945 81.4036 47.6363C81.9385 46.8839 82.5016 46.1494 83.093 45.4327C86.4626 41.3343 90.6557 37.9907 95.4003 35.6191C97.9744 34.3304 100.689 33.3454 103.491 32.6839C108.549 31.4847 113.8 31.34 118.916 32.2586C124.033 33.1772 128.905 35.1396 133.232 38.0237C137.558 40.9078 141.245 44.6518 144.063 49.0229C146.881 53.394 148.77 58.2987 149.613 63.4318C149.928 65.437 150.083 67.4641 150.076 69.4939Z" fill="#FFA2A2"/>
<path d="M165.005 225.089C164.439 228.113 165.147 233.64 166.222 239.265C166.266 239.51 166.315 239.756 166.364 240.001C166.413 240.247 166.485 240.626 166.547 240.933C167.042 243.351 167.581 245.747 168.107 247.923C168.633 250.1 169.106 251.965 169.507 253.499C170.113 255.797 170.528 257.242 170.528 257.242C170.528 257.242 170.581 258.66 170.653 260.918C170.693 262.22 170.737 263.808 170.782 265.561C170.782 266.07 170.813 266.587 170.826 267.122C170.849 268.055 170.871 269.023 170.893 270.013C170.893 270.334 170.893 270.655 170.916 270.981C170.916 272.047 170.956 273.136 170.973 274.219C170.996 275.709 171.014 277.199 171.023 278.645C171.023 279.198 171.023 279.742 171.023 280.277C171.023 281.66 171.023 282.985 171.023 284.203C170.973 287.66 170.835 290.269 170.541 291.023C170.439 291.282 170.345 291.563 170.256 291.857C169.869 293.242 169.589 294.654 169.418 296.082L168.66 295.462C167.211 294.266 165.776 293.044 164.318 291.857C161.896 289.826 159.324 287.98 156.625 286.335C156.442 286.228 156.259 286.121 156.072 286.018C155.573 285.728 155.065 285.456 154.547 285.197C153.482 284.66 152.39 284.178 151.276 283.752C146.127 281.789 140.613 281.076 135.023 281.196C132.795 282.048 131.346 282.659 131.346 282.659L128.511 283.516L128.038 283.658C124.967 284.595 120.648 285.924 119.092 286.478C116.578 287.37 94.7495 291.915 94.7495 291.915C92.7553 292.46 90.7182 292.833 88.6605 293.03C84.9137 294.085 81.0997 294.884 77.2448 295.421C68.4846 296.542 59.5872 295.825 51.1191 293.316C50.8663 293.331 50.6128 293.324 50.3613 293.294C50.5173 293.294 50.6689 293.258 50.8071 293.231L50.2633 293.071L49.5188 292.839C48.2707 292.446 47.033 292.016 45.8057 291.549L45.0613 291.264C43.8726 290.806 42.7092 290.314 41.571 289.787L40.8266 289.448C39.638 288.895 38.4745 288.311 37.3364 287.695C36.9263 287.481 36.5207 287.249 36.1195 287.031C34.907 286.353 33.7183 285.642 32.5534 284.898C32.3573 283.217 32.2548 282.093 32.2548 282.093L30.5163 273.43L30.4272 272.984L29.1791 266.739L29.0899 266.293L26.3753 252.705L26.2861 252.259L25.038 246.014L24.9489 245.568L22.1986 231.99L22.1094 231.544L20.8613 225.299L20.7722 224.853L18.0441 211.247L17.955 210.801L16.7069 204.578L16.6177 204.132L16.1229 201.679L15.3785 197.963C15.3785 197.963 13.0027 194.564 10.3281 190.545L10.0295 190.099C9.26724 188.97 8.48272 187.797 7.72048 186.646C7.4664 186.267 7.22123 185.892 6.97607 185.522C6.60461 184.96 6.24503 184.411 5.89734 183.876L5.65663 183.506L5.6076 183.43C1.7652 177.479 4.3372 174.892 4.3372 174.892C4.3372 174.892 5.95083 172.706 8.0325 169.816C8.13503 169.669 8.24201 169.522 8.35345 169.37C9.24495 168.121 10.2256 166.756 11.1884 165.391L11.9329 164.329C12.2137 163.932 12.49 163.535 12.7575 163.143C12.8645 162.995 12.967 162.844 13.0651 162.697C15.12 159.726 16.8139 157.134 17.1615 156.215C17.7054 154.765 21.1733 150.479 24.6279 146.718C27.3515 143.747 30.0617 141.107 31.2786 140.473C34.0378 139.015 35.1745 134.3 35.1745 134.3C35.1745 134.3 41.1788 132.194 41.9901 130.57C42.8013 128.947 54.1636 121.649 54.1636 121.649C54.1636 121.649 58.7593 118.687 60.6181 116.903C60.8813 116.669 61.1108 116.401 61.3001 116.104C61.9465 114.944 66.1678 113.99 67.8839 113.646C68.3297 113.557 68.606 113.508 68.606 113.508C69.2989 112.248 70.1747 111.098 71.2048 110.096C71.9046 109.476 72.7783 107.339 73.5138 105.269C74.3117 103.012 74.9313 100.84 74.9313 100.84C76.2329 96.4547 78.8272 97.7527 78.8272 97.7527C78.8236 98.3517 78.8804 98.9495 78.9966 99.537C80.0798 104.89 85.9637 107.12 89.0528 109.623C92.4628 112.379 97.8163 119.53 102.038 120.989C105.532 122.198 109.584 126.756 110.868 128.278L110.966 128.394C111.18 128.643 111.287 128.786 111.287 128.786C111.287 128.786 113.681 128.661 115.138 128.634H115.669C115.965 128.605 116.247 128.49 116.48 128.304C117.929 127.318 120.086 124.428 121.027 123.763C122.159 122.947 123.3 109.792 123.3 109.792L123.358 109.765C127.401 107.87 131.738 126.846 131.738 126.846C131.738 126.846 139.365 129.121 140.016 130.744C140.141 131.066 140.716 131.636 141.58 132.328C145.518 135.339 149.709 138.003 154.106 140.29C154.204 140.339 154.298 140.388 154.396 140.429C154.484 140.476 154.575 140.519 154.668 140.558C154.833 140.638 154.993 140.71 155.145 140.777C155.385 140.884 155.608 140.973 155.813 141.044L156.081 141.138C156.72 141.351 157.321 141.662 157.864 142.061C158.024 142.177 158.185 142.298 158.341 142.427C158.948 142.933 159.506 143.494 160.008 144.104C160.084 144.193 160.155 144.287 160.226 144.376C160.565 144.8 160.868 145.219 161.118 145.608C161.528 146.206 161.901 146.829 162.237 147.472C162.237 147.472 168.887 158.843 171 160.136C173.113 161.43 174.41 174.593 174.41 174.593L167.278 201.05C167.278 201.05 166.944 207.741 166.32 214.566C165.972 218.393 165.531 222.288 165.005 225.089Z" fill="#CED7E7"/>
<path d="M111.287 129.589C111.287 129.589 106.504 132.185 102.769 132.43C102.28 132.453 101.79 132.425 101.307 132.346C97.3928 131.752 91.6515 128.532 91.6515 128.532L98.3869 121.14L106.58 125.204L109.593 128.01L111.287 129.589Z" fill="#63667E"/>
<path opacity="0.1" d="M149.595 63.4318C149.426 63.6716 149.233 63.8942 149.02 64.0964C146.675 66.3268 142.512 65.4034 139.316 64.886C136.539 64.4316 133.826 63.6469 131.234 62.5485C128.979 61.585 126.273 60.4074 124.245 61.7902C123.465 62.3166 122.93 63.1597 122.119 63.6236C121.308 64.0875 120.273 64.1187 119.315 64.1321C116.195 64.1321 113.074 64.1678 110.03 63.463C105.488 62.4013 100.789 59.7294 96.4701 61.4914C93.0913 62.8653 91.2593 66.5454 90.3455 70.0827C89.8997 71.818 89.5698 73.6513 88.5624 75.1234C87.555 76.5954 85.6071 77.6392 83.9489 76.9478C81.5017 75.9263 81.1406 71.7689 78.1897 71.5592C74.9491 71.3317 74.9892 74.6818 75.9342 77.1039C77.3339 80.6725 79.1659 84.2411 79.2462 87.9614C75.7634 81.7189 74.1177 74.6173 74.4995 67.4779C74.8813 60.3386 77.2749 53.4533 81.4036 47.6185C82.1221 47.1732 82.6845 46.5153 83.0128 45.736C83.0458 45.6306 83.0726 45.5234 83.093 45.4149C83.3382 44.1703 82.6473 42.8633 82.6072 41.5608C82.4511 38.3803 85.8924 36.1633 89.0483 35.7618C91.1478 35.4942 93.2963 35.6994 95.4003 35.6325C96.4601 35.6091 97.514 35.4685 98.5429 35.2131C100.318 34.6809 101.98 33.8266 103.446 32.6928C108.504 31.4937 113.755 31.3489 118.872 32.2675C123.988 33.1862 128.861 35.1485 133.187 38.0326C137.513 40.9167 141.2 44.6607 144.018 49.0318C146.836 53.4029 148.726 58.3076 149.568 63.4407L149.595 63.4318Z" fill="black"/>
<path d="M150.357 60.8044C150.135 61.6867 149.672 62.4898 149.02 63.124C146.675 65.3543 142.512 64.4265 139.316 63.909C136.539 63.4646 133.825 62.6857 131.235 61.5895C128.979 60.6304 126.273 59.4528 124.245 60.8356C123.465 61.362 122.93 62.205 122.119 62.669C121.308 63.1329 120.273 63.1641 119.315 63.173C116.195 63.1953 113.074 63.2132 110.03 62.5084C105.488 61.4422 100.79 58.7747 96.4701 60.5323C93.0913 61.9062 91.2593 65.5907 90.3455 69.1281C89.8997 70.8633 89.5699 72.6967 88.5625 74.1643C87.5551 75.6319 85.6071 76.6846 83.9489 75.9932C81.5017 74.9717 81.1407 70.8143 78.1898 70.6046C74.9491 70.3771 74.9893 73.7271 75.9343 76.1493C77.5925 80.3736 79.848 84.5756 79.108 89.0542C78.3725 89.0542 77.1556 89.0274 76.4335 89.0096C76.9952 88.0505 75.9253 86.9086 74.86 86.583C73.7946 86.2573 72.551 86.2618 71.7397 85.4856C70.9284 84.7095 70.924 83.5095 71.0087 82.4345C71.1936 80.1368 71.7553 77.8852 72.6713 75.7701C73.2553 74.4319 74.0086 72.9822 73.5628 71.5815C73.2953 70.9466 72.9731 70.3362 72.6 69.7571C71.6728 67.9728 71.8913 65.7424 72.6847 63.9001C73.0235 63.115 73.2686 62.3745 73.5495 61.6697C73.9041 60.6679 74.4173 59.7296 75.0695 58.8907C76.0903 57.6194 77.0888 55.7057 75.961 54.5237C75.6757 54.2248 76.2463 54.0196 76.0635 53.6315C76.0312 53.5652 76.0087 53.4946 75.9967 53.4219C75.9443 52.952 76.0578 52.4785 76.3176 52.0836C76.3702 51.981 76.4283 51.8812 76.4914 51.7848C76.5427 51.6828 76.6008 51.5845 76.6653 51.4904C77.6524 49.8412 78.9642 48.41 80.5211 47.2839C81.4884 46.5835 82.6206 45.91 83.0039 44.7769C83.4497 43.4387 82.6651 42.0157 82.5983 40.6017C82.4423 37.4212 85.8835 35.2042 89.0394 34.8027C92.1954 34.4013 95.4672 35.0659 98.5429 34.2496C102.907 33.0987 105.974 29.2447 109.936 27.0812C112.104 25.9212 114.508 25.2724 116.965 25.1843C119.422 25.0961 121.866 25.571 124.111 26.5727C128.738 28.6871 132.229 32.9605 137.061 34.5663C138.772 35.1373 140.627 35.3648 142.169 36.3105C143.952 37.4078 145.035 39.3259 145.962 41.2173C147.375 44.0855 147.661 46.9672 148.637 50.0049C149.412 52.4137 150.487 55.563 150.576 58.3376C150.626 59.1661 150.552 59.9975 150.357 60.8044Z" fill="#896363"/>
<g opacity="0.1">
<path opacity="0.1" d="M76.5405 55.215C76.6119 54.9295 76.6189 54.6317 76.5611 54.3432C76.5032 54.0546 76.382 53.7826 76.2062 53.5467C76.3221 53.8946 75.8184 54.0953 76.0948 54.3853C76.315 54.6169 76.4689 54.9034 76.5405 55.215Z" fill="black"/>
<path opacity="0.1" d="M76.1928 52.5252C76.1403 52.6809 76.1088 52.8429 76.0992 53.007C76.1839 52.8642 76.2998 52.717 76.1928 52.5252Z" fill="black"/>
<path opacity="0.1" d="M149.145 62.0355C146.796 64.2658 142.637 63.3425 139.432 62.8206C136.657 62.3734 133.946 61.59 131.359 60.4876C129.099 59.5241 126.398 58.3464 124.365 59.7293C123.59 60.2556 123.055 61.0987 122.239 61.5626C121.424 62.0266 120.394 62.0578 119.435 62.0667C116.315 62.0667 113.195 62.1069 110.146 61.3976C105.608 60.3359 100.91 57.6729 96.5905 59.4259C93.2117 60.8043 91.3797 64.4844 90.4659 68.0218C90.0201 69.757 89.6947 71.5904 88.6829 73.0624C87.671 74.5345 85.7231 75.5783 84.0693 74.8913C81.6221 73.8654 81.2611 69.7124 78.3102 69.5028C76.0056 69.3377 75.3637 70.9882 75.5197 72.8215C75.6535 71.4209 76.4113 70.3414 78.3102 70.4752C81.2611 70.6849 81.6221 74.8423 84.0693 75.8638C85.7231 76.5552 87.6755 75.5158 88.6829 74.0349C89.6903 72.5539 90.0201 70.7295 90.4659 68.9987C91.3797 65.4613 93.2117 61.7768 96.5905 60.4028C100.91 58.6453 105.608 61.295 110.146 62.3745C113.177 63.0838 116.324 63.0614 119.435 63.0391C120.394 63.0391 121.406 63.0124 122.239 62.5395C123.073 62.0667 123.576 61.2325 124.365 60.7017C126.398 59.3233 129.099 60.501 131.359 61.46C133.946 62.5618 136.657 63.3467 139.432 63.7975C142.637 64.3149 146.796 65.2472 149.145 63.0079C150.42 61.7901 150.803 60.0281 150.718 58.1011C150.647 59.6311 150.201 61.0184 149.145 62.0355Z" fill="black"/>
<path opacity="0.1" d="M82.7543 39.7943C82.7296 40.0164 82.7207 40.24 82.7275 40.4634C82.7721 41.3912 83.1243 42.319 83.2357 43.2246C83.4006 42.1138 82.888 40.954 82.7543 39.7943Z" fill="black"/>
<path opacity="0.1" d="M73.6966 71.4432C73.7333 71.5766 73.7616 71.7122 73.7813 71.8492C73.8535 71.389 73.8246 70.9186 73.6966 70.4708C73.4308 69.8336 73.1086 69.2215 72.7337 68.6419C72.3988 67.982 72.2002 67.2614 72.1498 66.523C72.0592 67.5889 72.2611 68.6593 72.7337 69.6188C73.1094 70.1964 73.4317 70.8071 73.6966 71.4432Z" fill="black"/>
<path opacity="0.1" d="M79.2284 87.9391L76.6207 87.8989C76.6815 88.0565 76.7059 88.2259 76.692 88.3943C76.6781 88.5627 76.6263 88.7258 76.5405 88.8713C77.276 88.8713 78.4973 88.8981 79.215 88.916C79.3397 88.1525 79.383 87.3779 79.3443 86.6053C79.3341 87.0519 79.2954 87.4974 79.2284 87.9391Z" fill="black"/>
<path opacity="0.1" d="M74.9625 85.4722C73.8972 85.151 72.658 85.1466 71.8645 84.366C71.3975 83.8547 71.1342 83.1896 71.1246 82.4969C71.0577 83.5229 71.1246 84.6291 71.8645 85.3429C72.658 86.1235 73.8972 86.1279 74.9625 86.4491C75.3092 86.55 75.6315 86.7208 75.9098 86.9509C76.188 87.181 76.4163 87.4657 76.5806 87.7873C77.0308 86.864 75.9967 85.78 74.9625 85.4722Z" fill="black"/>
</g>
<path opacity="0.1" d="M156.059 286.018C155.559 285.728 155.051 285.456 154.534 285.197C153.469 284.66 152.377 284.177 151.262 283.752C146.114 281.789 140.6 281.075 135.01 281.196C132.781 282.048 131.333 282.659 131.333 282.659L128.498 283.516L128.025 283.658C127.994 283.346 127.958 283.034 127.927 282.717C127.896 282.4 127.86 282.097 127.824 281.785C126.826 272.324 126.041 262.604 126.041 262.604V254.208V253.232L125.988 228.497L125.542 220.343L125.333 216.734L125.293 216.047L125.212 214.637L125.168 213.799C125.069 213.533 124.986 213.262 124.918 212.987C124.887 212.875 124.856 212.75 124.829 212.621C124.718 212.175 124.597 211.6 124.472 210.975C123.657 206.871 122.636 199.953 122.573 198.547C122.493 196.674 120.871 185.468 120.871 185.468C120.706 179.299 115.522 167.684 114.216 165.493C112.91 163.303 111.452 150.144 111.942 149.435C112.196 149.055 112.361 146.812 112.464 144.742C112.464 144.506 112.486 144.274 112.495 144.046C112.562 142.427 112.593 141.075 112.593 141.075L117.692 140.067L119.061 139.799L119.168 139.777L119.212 139.866C119.36 140.138 119.819 141.008 120.358 142.15C120.42 142.271 120.478 142.4 120.541 142.529C120.568 142.592 120.599 142.654 120.63 142.717C121.628 144.903 122.783 147.78 122.734 149.435C122.654 152.361 125.983 159.427 125.983 159.427C126.304 161.05 133.365 177.207 133.365 177.207C133.365 177.207 139.129 193.043 138.803 195.643C138.478 198.244 141.563 215.458 141.563 215.458L144.727 233.163C146.265 236.651 148.293 244.689 148.293 244.689L149.065 249.248L149.212 250.118L151.267 262.282L152.274 268.242C152.274 268.242 152.698 271.409 153.339 274.933C153.393 275.25 153.455 275.571 153.518 275.892C153.913 278.212 154.475 280.5 155.198 282.739C155.557 283.812 155.844 284.907 156.059 286.018Z" fill="black"/>
<path d="M156.611 286.335C156.429 286.228 156.246 286.121 156.059 286.018C155.559 285.728 155.051 285.456 154.534 285.197C153.469 284.66 152.377 284.177 151.262 283.752C146.114 281.789 140.6 281.076 135.01 281.196C132.781 282.048 131.333 282.659 131.333 282.659L128.498 283.516C128.462 283.203 128.431 282.891 128.395 282.574C128.359 282.258 128.333 282.003 128.306 281.718C127.307 272.279 126.523 262.604 126.523 262.604V254.128V253.151L126.469 228.479L126.024 220.69L125.934 219.076L125.872 217.983L125.792 216.538L125.712 215.07L125.654 214.013V213.781C125.654 213.759 125.654 213.732 125.622 213.705C125.538 213.464 125.435 213.098 125.324 212.634L125.27 212.411C125.248 212.309 125.221 212.197 125.199 212.086C124.361 208.281 123.131 200.077 123.064 198.538C122.984 196.665 121.361 185.46 121.361 185.46C121.196 179.29 116.012 167.675 114.706 165.484C113.4 163.294 111.947 150.135 112.433 149.426C112.713 148.98 112.878 146.272 112.985 144.037C112.985 143.859 112.985 143.685 112.985 143.52C113.043 142.141 113.066 141.066 113.066 141.066L117.808 140.13L119.012 139.893L119.199 139.857L119.645 139.768C119.645 139.768 120.229 140.848 120.929 142.333L121.018 142.521C122.039 144.724 123.247 147.722 123.211 149.426C123.131 152.352 126.46 159.418 126.46 159.418C126.781 161.042 133.842 177.198 133.842 177.198C133.842 177.198 139.606 193.034 139.28 195.635C138.955 198.235 142.04 215.449 142.04 215.449L145.204 233.154C146.742 236.642 148.77 244.68 148.77 244.68L149.488 248.927L149.635 249.788L151.253 259.387L152.747 268.233C152.747 268.233 153.192 271.387 153.807 274.924C153.865 275.245 153.923 275.566 153.986 275.892C154.381 278.222 154.942 280.521 155.666 282.771C156.061 283.936 156.377 285.127 156.611 286.335Z" fill="#63667E"/>
<path d="M152.591 57.2358C152.591 57.2358 150.888 59.4304 149.35 59.4304C147.812 59.4304 141.826 59.1851 138.705 58.2127C135.585 57.2402 120.287 56.5042 120.287 56.5042C120.287 56.5042 98.6231 56.5845 97.8921 55.8529C97.161 55.1214 84.4214 51.2227 83.1242 51.468C82.8523 51.5216 82.1882 51.6375 81.3011 51.7847L80.2848 51.9498C78.7469 52.1951 76.8257 52.4806 75.0695 52.6903C72.8986 52.9445 70.9908 53.0739 70.3846 52.8509V50.9818C70.3846 50.9818 72.8986 47.324 73.0591 46.2757C73.2196 45.2275 75.3325 30.0297 80.8509 24.5921C83.1307 20.2309 86.8201 16.7715 91.3172 14.7785C98.7836 11.5266 106.25 8.76984 106.25 8.76984L107.556 8.58249L111.768 7.95799C111.896 7.83043 112.035 7.71403 112.183 7.61005C113.351 6.7179 116.89 4.77748 121.504 8.94827L122.319 10.2508C122.319 10.2508 136.517 13.5785 143.087 25.1898C149.658 36.8011 149.987 48.1715 150.473 53.3683C150.473 53.3683 150.148 54.8314 150.799 55.3979C151.034 55.6062 151.259 55.8266 151.472 56.0581C151.53 56.1161 151.588 56.1741 151.641 56.2366C151.828 56.4239 152.002 56.6202 152.145 56.7808C152.162 56.7933 152.177 56.8083 152.189 56.8254C152.224 56.8676 152.261 56.9078 152.301 56.9458L152.591 57.2358Z" fill="#FED253"/>
<path opacity="0.05" d="M152.591 57.2356C152.591 57.2356 150.888 59.4303 149.35 59.4303C147.812 59.4303 141.826 59.185 138.705 58.2125C135.585 57.2401 120.287 56.5041 120.287 56.5041C120.287 56.5041 98.6231 56.5844 97.8921 55.8528C97.1611 55.1213 84.4214 51.2226 83.1243 51.4679C82.8523 51.5214 82.1882 51.6374 81.3011 51.7846L81.0693 50.3572L81.0114 50.0048C81.0114 50.0048 105.599 44.7277 121.99 47.4934C138.38 50.259 150.473 53.337 150.473 53.337C150.473 53.337 150.148 54.8001 150.799 55.3666C151.034 55.5749 151.259 55.7952 151.472 56.0268C151.53 56.0848 151.588 56.1428 151.641 56.2052C151.828 56.3926 152.002 56.5888 152.145 56.7494C152.162 56.762 152.177 56.777 152.189 56.794C152.224 56.8362 152.261 56.8764 152.301 56.9145L152.591 57.2356Z" fill="black"/>
<path opacity="0.1" d="M150.357 60.8044C147.322 61.0408 141.728 60.3004 139.28 59.939C138.585 59.8364 137.903 59.7115 137.217 59.5599C134.591 58.9889 126.518 57.3875 121.615 58.128C115.691 59.0201 98.9752 57.3964 98.9752 57.3964C98.9752 57.3964 88.6694 55.2865 84.5284 53.5825C83.0083 52.9535 80.4675 52.7572 77.9401 53.0695C77.2956 53.1499 76.6558 53.2646 76.0234 53.413C72.5732 54.2293 69.6625 56.0894 70.1662 59.261C69.9733 59.0297 69.7947 58.7869 69.6312 58.5339C69.4128 55.6344 70.3133 53.9081 71.5614 52.8911L71.8556 52.7706C73.3802 52.3371 74.9319 52.0048 76.5003 51.7759C76.7455 51.7357 76.9996 51.7 77.2581 51.6688C81.6934 51.0711 88.1078 50.9373 93.5192 53.6628C93.5192 53.6628 98.5473 56.0225 101.957 56.0225C105.367 56.0225 133.116 56.2678 139.61 58.1324C140.903 58.5062 142.222 58.785 143.555 58.9666C145.923 59.2721 148.329 59.045 150.598 58.3019C150.644 59.1435 150.563 59.9872 150.357 60.8044Z" fill="black"/>
<path opacity="0.1" d="M152.591 57.2357C152.591 57.2357 150.888 59.4304 149.35 59.4304C147.812 59.4304 141.826 59.1851 138.705 58.2126C135.585 57.2402 120.287 56.5042 120.287 56.5042C120.287 56.5042 98.6231 56.5845 97.8921 55.8529C97.161 55.1213 84.4214 51.2227 83.1242 51.468C82.8523 51.5215 82.1882 51.6375 81.3011 51.7847L80.2848 51.9498C78.5196 51.9407 76.7625 52.1902 75.0695 52.6902C72.8986 52.9445 70.9908 53.0739 70.3846 52.8508V52.4806C70.852 52.2092 71.3392 51.9735 71.8422 51.7758C74.8502 50.9329 77.9476 50.4507 81.0693 50.3394C84.9607 50.1967 89.5119 50.6517 93.5103 52.6679C93.5103 52.6679 98.5384 55.0277 101.948 55.0277C105.358 55.0277 133.107 55.2686 139.601 57.1376C140.895 57.5079 142.213 57.7852 143.546 57.9673C146.471 58.3362 149.442 57.9093 152.145 56.7317C152.162 56.7442 152.177 56.7592 152.189 56.7763C152.224 56.8185 152.261 56.8587 152.301 56.8967L152.591 57.2357Z" fill="black"/>
<path d="M70.2286 59.1851C70.2286 59.1851 64.7904 55.0411 71.8512 52.2799C71.8512 52.2799 84.1852 48.466 93.5193 53.172C93.5193 53.172 98.5474 55.5228 101.957 55.5228C105.367 55.5228 133.116 55.7682 139.61 57.6372C140.904 58.008 142.222 58.2853 143.555 58.4669C147.01 58.8862 150.511 58.2206 153.571 56.5622C154.017 56.3169 154.418 56.192 154.539 56.3347C154.944 56.8254 154.623 59.6669 151.053 60.2334C148.267 60.6795 141.937 59.8364 139.276 59.4483C138.585 59.3457 137.899 59.2163 137.217 59.0691C134.591 58.4982 126.518 56.8967 121.593 57.6372C115.673 58.5294 98.953 56.9057 98.953 56.9057C98.953 56.9057 88.6516 54.7957 84.5106 53.0873C80.3695 51.3788 68.6863 52.8509 70.2286 59.1851Z" fill="#FED253"/>
<path opacity="0.1" d="M116.074 15.6438C115.629 15.0015 109.901 10.4114 107.565 8.55569L111.777 7.93119C111.905 7.80363 112.044 7.68723 112.192 7.58325C115.254 10.7994 116.074 15.6438 116.074 15.6438Z" fill="black"/>
<path opacity="0.1" d="M97.4953 40.2625L95.6276 43.0237L102.769 42.7828L102.929 39.696L97.4953 40.2625Z" fill="black"/>
<path opacity="0.1" d="M141.068 43.5948L141.879 46.1107L146.426 46.8422L144.478 43.8357L141.068 43.5948Z" fill="black"/>
<path opacity="0.1" d="M63.0073 128.055C63.4932 128.866 79.4779 149.912 83.6992 149.328C87.9205 148.743 63.0073 128.055 63.0073 128.055Z" fill="black"/>
<path opacity="0.1" d="M116.565 147.289C116.565 147.289 120.461 151.027 119.89 152.486C119.319 153.945 116.565 147.289 116.565 147.289Z" fill="black"/>
<path opacity="0.1" d="M74.0442 172.952C74.0442 172.952 70.6342 188.948 72.4217 189.456C74.2092 189.965 74.0442 172.952 74.0442 172.952Z" fill="black"/>
<path opacity="0.1" d="M117.862 235.072C118.428 236.696 123.135 247.254 124.192 247.821C125.248 248.387 117.862 235.072 117.862 235.072Z" fill="black"/>
<path opacity="0.1" d="M172.556 191.709C172.391 192.276 168.335 195.608 169.226 196.826C170.118 198.043 172.556 191.709 172.556 191.709Z" fill="black"/>
<path opacity="0.1" d="M141.068 221.346C140.988 221.757 140.176 230.268 141.719 231.905C143.261 233.542 141.068 221.346 141.068 221.346Z" fill="black"/>
<path opacity="0.1" d="M182.648 265.561C181.471 266.217 180.254 266.85 179.015 267.457C177.678 268.108 176.34 268.728 174.976 269.313C174.433 269.549 173.889 269.781 173.349 270.004C172.529 270.343 171.718 270.669 170.916 270.981C168.477 271.935 166.128 272.765 164.038 273.465C163.226 273.738 162.451 273.987 161.729 274.219C158.091 275.375 155.675 276.004 155.675 276.004C155.123 275.885 154.558 275.839 153.995 275.865C153.839 275.865 153.678 275.865 153.513 275.865C152.758 275.92 152.007 276.015 151.262 276.151C146.283 277.043 139.249 279.545 135.01 281.183C132.781 282.035 131.333 282.646 131.333 282.646L128.498 283.502L128.025 283.645C124.954 284.582 120.634 285.911 119.079 286.464C116.565 287.356 94.7361 291.902 94.7361 291.902C92.7419 292.446 90.7048 292.82 88.6471 293.017C83.5765 293.482 78.4799 293.599 73.3934 293.365C68.2851 293.695 60.0208 292.571 55.2111 291.812L54.4444 291.692C52.5856 291.389 51.4044 291.17 51.4044 291.17L52.0284 290.309L64.826 272.64L64.9018 272.533L76.8257 256.078L77.2715 255.48L78.3547 253.985C78.3547 253.985 79.0055 253.093 81.5106 253.035C81.8048 253.035 82.1257 253.035 82.4779 253.035C84.5821 253.205 86.6582 253.628 88.6605 254.298L89.24 254.472C97.8742 256.947 111.22 256.327 111.22 256.327C111.22 256.327 119.524 254.989 126.05 254.186L126.536 254.124C128.669 253.822 130.816 253.636 132.968 253.566C136.945 253.646 145.548 251.536 145.548 251.536C147.398 251.139 148.178 250.805 149.221 250.06C149.359 249.962 149.506 249.855 149.666 249.739C150.112 249.404 150.625 248.994 151.284 248.485C152.488 247.562 154.177 246.308 156.834 244.551C157.066 244.399 157.311 244.248 157.574 244.105C157.837 243.962 158.171 243.77 158.492 243.61C161.065 242.39 163.778 241.492 166.569 240.933C168.885 240.435 171.235 240.112 173.599 239.965H173.951C180.637 239.608 187.466 240.755 191.46 244.515C192.159 245.176 192.767 245.926 193.27 246.746C193.514 247.135 193.732 247.54 193.921 247.959C194.285 248.758 194.556 249.596 194.728 250.457C194.76 250.618 194.787 250.778 194.808 250.939C194.808 250.988 194.808 251.032 194.808 251.081C194.808 251.211 194.835 251.34 194.844 251.47C195.2 256.809 189.664 261.636 182.648 265.561Z" fill="black"/>
<path d="M51.4044 290.211C51.4044 290.211 65.8468 292.888 73.3934 292.401C73.3934 292.401 87.2697 293.133 94.7361 290.943C94.7361 290.943 116.578 286.393 119.079 285.501C121.579 284.609 131.333 281.682 131.333 281.682C131.333 281.682 150.322 273.724 155.675 275.022C155.675 275.022 197.71 264.143 194.705 249.445C191.701 234.746 165.17 238.079 156.816 243.596C148.463 249.114 149.684 249.69 145.539 250.582C145.539 250.582 136.936 252.692 132.96 252.612C128.983 252.531 111.211 255.373 111.211 255.373C111.211 255.373 97.2546 256.024 88.656 253.343C80.0574 250.662 78.3502 253.018 78.3502 253.018L51.4044 290.211Z" fill="#FFA2A2"/>
<path opacity="0.1" d="M82.723 252.063C82.7252 252.081 82.7252 252.099 82.723 252.116C82.6919 252.448 82.6061 252.772 82.4689 253.075C80.7572 257.277 71.0398 268.612 71.0398 268.612C70.5968 269.959 70.0621 271.273 69.4396 272.547C68.1006 275.268 66.5584 277.885 64.826 280.375C62.2581 284.1 59.4545 287.657 56.4324 291.023H56.4102C56.0256 291.308 55.6253 291.572 55.2111 291.812C54.1636 292.437 52.59 293.209 51.1057 293.302C50.8529 293.317 50.5993 293.31 50.3479 293.28C50.5039 293.28 50.6555 293.244 50.7937 293.218L50.2498 293.057L49.5054 292.825C48.2573 292.433 47.0196 292.003 45.7923 291.536L45.0479 291.25C43.8592 290.792 42.6958 290.3 41.5576 289.774L40.8132 289.435C39.6245 288.882 38.4611 288.297 37.323 287.682C36.9129 287.468 36.5072 287.236 36.1061 287.017C34.8936 286.339 33.7049 285.628 32.54 284.885C31.3038 284.097 30.0943 283.275 28.9116 282.418C28.0201 280.763 27.2846 279.296 26.8834 278.506C26.1524 277.039 26.09 274.937 26.1791 273.416C26.1791 273.26 26.1791 273.113 26.2059 272.97C26.2816 272.016 26.3975 271.36 26.3975 271.36C25.737 270.476 25.1412 269.546 24.6145 268.576C24.312 268.095 24.1399 267.543 24.1153 266.975C24.1354 266.747 24.1143 266.517 24.0529 266.297C23.7096 264.887 22.2342 262.465 20.8702 260.944C19.8539 259.825 19.7915 255.64 19.8895 252.674C19.9475 250.89 20.0589 249.578 20.0589 249.578C19.8592 249.449 19.7097 249.256 19.6354 249.03C19.277 248.053 19.0346 247.038 18.9133 246.005C18.9133 245.858 18.8732 245.711 18.8509 245.559C18.5656 243.512 18.4364 241.455 18.4364 241.455C15.1378 239.051 13.5687 235.299 12.8377 231.954L12.7441 231.508C12.3426 229.452 12.1722 227.357 12.2359 225.263C12.2359 225.062 12.2359 224.91 12.2359 224.817C12.2359 224.723 12.2359 224.705 12.2359 224.705C12.2359 224.705 12.6728 215.039 13.8941 211.265C13.9432 211.104 13.9967 210.957 14.0501 210.819C14.1401 210.582 14.2568 210.356 14.3978 210.145C14.8436 209.552 15.1601 208.432 15.4231 207.108C15.6058 206.189 15.7574 205.167 15.8688 204.15C15.9713 203.303 16.0516 202.459 16.114 201.679C16.2878 199.591 16.3413 197.963 16.3413 197.963L15.5167 193.895C15.2893 192.784 15.1155 191.664 14.9951 190.545C14.9951 190.398 14.9595 190.25 14.9417 190.099C14.7332 188.031 14.6959 185.95 14.8302 183.876C14.8302 183.724 14.8302 183.577 14.857 183.43C15.205 178.707 16.439 174.091 18.4943 169.825L18.7172 169.379C19.0144 168.784 19.3264 168.199 19.6533 167.626C19.8895 167.202 20.1391 166.782 20.3977 166.368C21.0831 165.257 21.827 164.183 22.6265 163.151C22.7424 163 22.8627 162.853 22.9831 162.705C24.374 160.98 25.9198 159.385 27.6011 157.941C32.1032 154.069 36.2353 152.388 39.9886 152.258C56.4012 151.678 65.6061 180.727 67.0949 185.816C67.2375 186.307 67.3089 186.575 67.3089 186.575C67.3089 186.575 73.9595 193.235 72.0116 196.156C71.6339 196.8 71.4039 197.519 71.3385 198.262C70.8036 202.192 72.337 208.664 72.337 208.664C72.337 208.664 72.8808 210.449 74.4677 214.722L74.9357 215.971C75.9297 218.647 76.1615 223.139 75.591 227.163C75.0427 231.017 73.7545 234.425 71.6906 235.299C67.4693 237.084 68.606 238.868 69.5777 240.336C70.1552 241.388 70.637 242.489 71.0175 243.628C71.6282 245.274 72.1943 247.004 72.4083 247.678C72.4707 247.865 72.5019 247.968 72.5019 247.968C73.0932 247.739 73.7074 247.574 74.3339 247.477C75.1318 247.366 75.9208 247.446 76.0724 248.128C76.1526 248.494 76.6117 248.927 77.2581 249.36C79.1748 250.68 82.723 252.063 82.723 252.063Z" fill="black"/>
<path d="M81.7513 252.063C81.7241 252.402 81.6381 252.734 81.4972 253.044C79.7945 257.251 70.0681 268.612 70.0681 268.612C69.6231 269.958 69.0885 271.272 68.4678 272.547C67.3922 274.745 66.1757 276.871 64.826 278.912C62.0317 283.13 58.9361 287.141 55.5633 290.912L55.4607 291.023C55.4607 291.023 55.0685 291.322 54.4444 291.706C53.3293 292.418 52.1006 292.934 50.8115 293.231L50.2677 293.07L49.5233 292.839C48.2752 292.446 47.0375 292.016 45.8102 291.549L45.0658 291.264C43.8771 290.806 42.7137 290.314 41.5755 289.787L40.8311 289.448C39.6424 288.895 38.479 288.311 37.3408 287.695C36.9308 287.481 36.5251 287.249 36.1239 287.031C34.9115 286.353 33.7228 285.642 32.5579 284.898C31.3217 284.11 30.1122 283.288 28.9295 282.432C28.3827 282.039 27.8418 281.636 27.3069 281.223C26.7052 280.081 26.2237 279.117 25.9251 278.52C25.194 277.052 25.1316 274.951 25.2208 273.43C25.2208 273.274 25.2208 273.127 25.2475 272.984C25.3233 272.029 25.4392 271.373 25.4392 271.373C25.4392 271.373 25.0782 270.887 24.6413 270.227C24.3961 269.861 24.1332 269.438 23.8969 269.018C23.4511 268.233 23.1035 267.439 23.1703 266.989C23.1794 266.912 23.1794 266.834 23.1703 266.757C23.1636 266.606 23.1412 266.456 23.1035 266.311C22.7602 264.901 21.2803 262.479 19.9163 260.958C18.9 259.838 18.8376 255.654 18.9312 252.687C18.9312 252.536 18.9312 252.389 18.9312 252.241C18.9936 250.702 19.0872 249.592 19.0872 249.592C18.5835 249.373 18.1957 247.754 17.9461 246.023L17.8792 245.577C17.5939 243.53 17.4647 241.473 17.4647 241.473C14.1661 239.069 12.597 235.317 11.8705 231.972C11.3643 229.629 11.1694 227.229 11.291 224.835C11.291 224.763 11.291 224.723 11.291 224.723C11.291 224.723 11.6743 215.008 12.8957 211.229C12.9447 211.069 12.9982 210.922 13.0517 210.783C13.1587 210.552 13.2918 210.333 13.4484 210.132C14.126 209.186 14.5762 206.911 14.8704 204.583L14.9239 204.137C15.2938 201.014 15.3964 197.95 15.3964 197.95L14.5673 193.882C14.3414 192.766 14.1676 191.65 14.0457 190.532C14.0234 190.384 14.0101 190.233 13.9922 190.085C13.7838 188.018 13.7465 185.936 13.8808 183.863C13.8808 183.711 13.8808 183.564 13.912 183.417C14.2579 178.693 15.492 174.077 17.5494 169.811C17.6207 169.66 17.692 169.513 17.7722 169.365C18.3454 168.207 18.9823 167.081 19.6801 165.993C19.9208 165.614 20.1659 165.239 20.4245 164.869C20.8301 164.28 21.2536 163.7 21.6949 163.138L22.0515 162.692C23.4305 160.973 24.9628 159.383 26.6294 157.941C31.5327 153.735 35.9902 152.111 40.002 152.258C55.804 152.825 64.6745 180.829 66.1321 185.817C66.2747 186.307 66.3461 186.575 66.3461 186.575C66.3461 186.575 73.0012 193.235 71.0532 196.157C70.6755 196.8 70.4456 197.519 70.3801 198.262C69.8408 202.192 71.3786 208.664 71.3786 208.664C71.3786 208.664 71.9224 210.449 73.5093 214.722C73.652 215.119 73.808 215.534 73.9551 215.971C74.9491 218.648 75.1809 223.14 74.6103 227.163C74.0621 231.022 72.7783 234.425 70.71 235.299C66.4932 237.084 67.6254 238.868 68.6016 240.336C69.179 241.388 69.6609 242.489 70.0414 243.628C70.8125 245.729 71.5213 247.968 71.5213 247.968C71.813 247.855 72.1106 247.759 72.4128 247.678C73.0329 247.474 73.6896 247.405 74.3384 247.477C74.518 247.491 74.6885 247.562 74.8255 247.679C74.9624 247.796 75.0588 247.953 75.1007 248.129C75.221 248.664 76.1437 249.329 77.2626 249.957C78.7153 250.749 80.2143 251.452 81.7513 252.063Z" fill="#CED7E7"/>
<path opacity="0.1" d="M23.0811 209.169C24.6234 209.088 41.1787 202.674 44.5888 204.864C47.9988 207.054 69.1052 221.266 69.1052 221.266C69.1052 221.266 55.8797 203.972 44.357 199.912C32.8342 195.853 23.0811 209.169 23.0811 209.169Z" fill="black"/>
<path opacity="0.1" d="M46.8799 235.317C46.8799 235.317 63.4353 238.645 65.9493 240.92L46.8799 235.317Z" fill="black"/>
<path opacity="0.1" d="M43.6928 260.092C43.4521 260.338 37.4523 273.814 37.9337 273.814C38.4151 273.814 43.5323 265.784 43.5323 265.784L43.6928 260.092Z" fill="black"/>
<path opacity="0.1" d="M54.9748 243.922C54.9748 243.922 50.1072 245.631 50.6733 245.791C51.2394 245.952 54.8099 244.654 54.9748 243.922Z" fill="black"/>
<path opacity="0.1" d="M50.1072 264.308C50.9185 266.012 53.5127 271.128 54.0833 270.316C54.6539 269.504 50.1072 264.308 50.1072 264.308Z" fill="black"/>
<path opacity="0.1" d="M110.872 129.245L110.177 130.236C110.177 130.236 104.654 126.341 102.385 124.392C100.116 122.443 94.7584 131.373 90.5371 133.809C86.3158 136.244 79.1793 136.896 79.1793 136.896C79.1793 136.896 73.6609 131.373 73.8303 129.758C73.9997 128.144 71.236 127.648 71.071 126.511C70.9061 125.373 69.9344 122.126 68.6372 120.502C67.9508 119.646 67.8527 116.965 67.9151 114.632C68.3609 114.543 68.6372 114.494 68.6372 114.494C69.3301 113.234 70.2058 112.084 71.236 111.081C72.698 109.783 74.9669 101.825 74.9669 101.825C76.2641 97.4403 78.8584 98.7384 78.8584 98.7384C78.8584 105.398 85.6784 107.834 89.084 110.595C92.4895 113.356 97.8475 120.502 102.069 121.965C105.532 123.148 109.584 127.72 110.872 129.245Z" fill="black"/>
<path d="M110.872 128.268L110.177 129.263C110.177 129.263 104.632 125.378 102.363 123.415C100.094 121.452 94.7361 130.396 90.5149 132.832C86.2936 135.267 79.157 135.923 79.157 135.923C79.157 135.923 73.6386 130.396 73.808 128.786C73.9774 127.176 71.2137 126.676 71.0488 125.534C70.8838 124.392 69.9121 121.149 68.615 119.525C67.9285 118.669 67.8304 115.988 67.8928 113.655L68.615 113.521C69.3078 112.261 70.1836 111.111 71.2137 110.109C72.6758 108.806 74.9447 100.853 74.9447 100.853C76.2418 96.4679 78.8361 97.7615 78.8361 97.7615C78.8361 104.421 85.6561 106.861 89.0617 109.623C92.4673 112.384 97.8252 119.525 102.047 120.989C105.532 122.188 109.584 126.743 110.872 128.268Z" fill="#CED7E7"/>
<path opacity="0.1" d="M111.287 129.589C111.287 129.589 106.504 132.185 102.769 132.43C102.28 132.453 101.79 132.425 101.307 132.346C101.307 132.346 105.43 129.263 109.259 128.634L111.287 129.589Z" fill="black"/>
<path opacity="0.1" d="M121.027 142.824C121.027 142.824 114.996 140.473 113.003 144.011C113.07 142.387 113.097 141.04 113.097 141.04L119.672 139.737C119.672 139.737 120.305 140.91 121.045 142.489C121.027 142.699 121.027 142.824 121.027 142.824Z" fill="black"/>
<path d="M101.307 132.346C101.307 132.346 108.532 128.005 112.005 128.371C115.646 128.75 122.703 129.018 122.703 129.018C122.703 129.018 120.269 134.54 120.594 135.678C120.92 136.815 121 142.338 121 142.338C121 142.338 113.699 139.496 112.482 144.773C112.482 144.773 108.505 138.845 105.826 137.056C104.049 135.771 102.518 134.175 101.307 132.346Z" fill="#63667E"/>
<path opacity="0.1" d="M142.124 137.386C140.016 137.386 132.549 132.671 130.927 129.589C129.304 126.507 127.031 129.91 124.923 131.052C123.585 131.784 118.285 130.254 115.428 129.143C116.877 128.157 120.086 125.382 121.027 124.718C122.159 123.901 123.3 110.747 123.3 110.747C127.356 108.637 131.738 127.8 131.738 127.8C131.738 127.8 139.37 130.075 140.016 131.699C140.141 132.02 140.716 132.591 141.58 133.282C142.472 135.531 142.962 137.386 142.124 137.386Z" fill="black"/>
<path d="M142.124 136.409C140.016 136.409 132.549 131.699 130.927 128.617C129.304 125.534 127.031 128.938 124.923 130.075C123.585 130.807 119.337 129.393 116.48 128.291C117.929 127.31 120.086 124.419 121.027 123.75C122.159 122.938 123.3 109.783 123.3 109.783C127.356 107.673 131.738 126.837 131.738 126.837C131.738 126.837 139.369 129.112 140.016 130.735C140.141 131.057 140.716 131.628 141.58 132.319C142.472 134.554 142.962 136.409 142.124 136.409Z" fill="#CED7E7"/>
<path d="M170.96 278.693L241.527 219.812C242.232 219.216 243.129 218.899 244.05 218.92L270.377 219.611C270.377 219.611 272.2 220.949 269.525 223.875L202.956 278.542C202.237 279.13 201.344 279.466 200.416 279.496L171.629 280.451C171.422 280.457 171.218 280.399 171.046 280.284C170.874 280.17 170.742 280.004 170.669 279.811C170.595 279.617 170.584 279.406 170.636 279.205C170.688 279.005 170.801 278.826 170.96 278.693Z" fill="#F22E2E"/>
<path d="M205.096 271.449C205.096 271.449 220.51 293.539 237.636 272.993C254.762 252.446 249.81 241.651 244.617 241.08C239.423 240.51 210.204 263.005 205.096 271.449Z" fill="#FFA2A2"/>
<path opacity="0.1" d="M309.059 24.3868C309.059 24.3868 328.926 -14.1986 352.409 5.70073C352.409 5.70073 357.535 7.56977 357.147 12.994C357.147 12.994 355.172 11.9101 353.603 16.0541C353.027 17.5245 352.279 18.9215 351.375 20.216C350.173 21.9646 348.437 23.2762 346.427 23.9541C346.427 23.9541 335.889 31.854 316.37 25.7607C316.37 25.7607 310.851 26.5547 309.96 25.8677L316.374 21.175C316.374 21.175 319.632 26.0149 324.398 26.5681C324.398 26.5681 316.374 21.5274 317.292 20.4345C317.479 20.2115 320.805 18.1016 320.805 18.1016C320.805 18.1016 326.506 26.4922 333.897 27.1123C333.897 27.1123 323.542 22.3883 322.057 17.2986L327.259 14.3947C327.259 14.3947 332.849 23.5615 341.243 24.5875C341.243 24.5875 330.589 19.2747 328.441 13.8371L333.946 11.687C333.946 11.687 339.575 20.5193 346.56 21.3267C346.56 21.3267 334.873 13.9442 335.238 11.2766C335.238 11.2766 340.414 9.60833 342 9.82691C342 9.82691 346.186 16.0719 350.287 16.1835C350.287 16.1835 342.999 10.4202 343.48 9.5325C343.48 9.5325 350.8 9.15334 354.624 10.9242C354.624 10.9242 349.186 7.89541 343.48 8.38609C343.48 8.38609 346.061 5.34833 349.427 4.67922C349.427 4.67922 345.393 3.01982 341.706 8.49761C341.706 8.49761 336.014 9.01952 335.31 9.65294C335.31 9.65294 338.189 3.72908 341.733 1.20876C341.733 1.20876 336.451 2.14106 333.834 10.1704L328.253 12.2089C328.253 12.2089 331.646 4.17962 334.637 1.69945C334.637 1.69945 329.394 3.48374 326.889 12.8513L321.754 15.6437C321.754 15.6437 324.148 8.50653 326.88 5.0227C326.88 5.0227 322.374 7.7259 320.31 16.4957L317.101 18.7573C317.101 18.7573 318.942 13.5739 319.606 12.1331C320.27 10.6923 319.936 10.3934 319.936 10.3934C317.705 13.0329 316.249 16.2403 315.732 19.6584C315.732 19.6584 309.429 24.7436 309.059 24.3868Z" fill="#F22E2E"/>
<path opacity="0.1" d="M391.225 45.0223C391.225 45.0223 400.203 27.5853 410.812 36.5781C410.812 36.5781 413.129 37.4212 412.951 39.8702C412.951 39.8702 412.06 39.3839 411.351 41.2575C411.094 41.9211 410.759 42.5515 410.352 43.1354C409.81 43.9236 409.029 44.5164 408.124 44.826C408.124 44.826 403.358 48.3946 394.537 45.6424C394.537 45.6424 392.045 45.9992 391.644 45.6914L394.541 43.5681C394.541 43.5681 396.012 45.7583 398.17 46.0037C398.17 46.0037 394.55 43.7287 394.96 43.2336C395.041 43.1354 396.543 42.1808 396.543 42.1808C396.543 42.1808 399.119 45.9725 402.463 46.2535C402.463 46.2535 397.782 44.1168 397.113 41.7927L399.467 40.4858C399.467 40.4858 401.99 44.6298 405.783 45.0937C405.783 45.0937 400.969 42.6938 399.989 40.236L402.476 39.2635C402.476 39.2635 405.017 43.2559 408.173 43.6217C408.173 43.6217 402.89 40.285 403.06 39.0806C403.06 39.0806 405.396 38.3268 406.113 38.4249C406.113 38.4249 408.003 41.2485 409.858 41.2931C409.858 41.2931 406.563 38.6925 406.782 38.2911C406.782 38.2911 410.089 38.1216 411.81 38.92C411.81 38.92 409.354 37.5506 406.782 37.7736C407.491 36.9661 408.421 36.3832 409.456 36.0964C409.456 36.0964 407.633 35.347 405.966 37.8227C405.966 37.8227 403.394 38.0591 403.078 38.3446C403.078 38.3446 404.379 35.6682 405.98 34.5307C405.98 34.5307 403.59 34.95 402.413 38.581L399.917 39.5178C399.917 39.5178 401.446 35.8912 402.801 34.7671C402.801 34.7671 400.43 35.5745 399.298 39.8033L396.98 41.0612C396.98 41.0612 398.058 37.8316 399.293 36.2614C399.293 36.2614 397.256 37.4837 396.329 41.4448L394.876 42.4663C394.876 42.4663 395.709 40.1244 396.008 39.4732C396.307 38.8219 396.155 38.6881 396.155 38.6881C395.147 39.8849 394.49 41.3378 394.256 42.8856C394.256 42.8856 391.381 45.1829 391.225 45.0223Z" fill="#F22E2E"/>
<path opacity="0.1" d="M293.948 65.3098C293.948 65.3098 302.926 47.8728 313.561 56.8656C313.561 56.8656 315.875 57.7087 315.701 60.1621C315.701 60.1621 314.809 59.6714 314.101 61.5449C313.842 62.2078 313.507 62.8381 313.102 63.4229C312.554 64.2149 311.764 64.808 310.851 65.1135C310.851 65.1135 306.09 68.6821 297.269 65.9298C297.269 65.9298 294.777 66.2911 294.376 65.9789L297.273 63.8556C297.273 63.8556 298.744 66.0458 300.897 66.2956C300.897 66.2956 297.278 64.0162 297.688 63.521C297.773 63.4229 299.275 62.4683 299.275 62.4683C299.275 62.4683 301.851 66.2599 305.19 66.5409C305.19 66.5409 300.514 64.4042 299.841 62.0802L302.195 60.7777C302.195 60.7777 304.722 64.9172 308.515 65.3811C308.515 65.3811 303.701 62.9813 302.721 60.5234L305.208 59.551C305.208 59.551 307.753 63.5433 310.909 63.9091C310.909 63.9091 305.627 60.5725 305.792 59.3681C305.792 59.3681 308.132 58.6142 308.85 58.7123C308.85 58.7123 310.74 61.536 312.594 61.5851C312.594 61.5851 309.3 58.98 309.518 58.5785C309.518 58.5785 312.821 58.409 314.546 59.2075C314.546 59.2075 312.086 57.838 309.514 58.0611C310.223 57.2535 311.153 56.6707 312.188 56.3838C312.188 56.3838 310.37 55.6344 308.703 58.1101C308.703 58.1101 306.131 58.3466 305.814 58.6321C305.814 58.6321 307.111 55.9556 308.716 54.8181C308.716 54.8181 306.327 55.2374 305.15 58.8685L302.622 59.8052C302.622 59.8052 304.156 56.1786 305.507 55.059C305.507 55.059 303.14 55.8619 302.007 60.0907L299.685 61.3486C299.685 61.3486 300.768 58.1191 302.003 56.5489C302.003 56.5489 299.966 57.7711 299.034 61.7323L297.581 62.7538C297.581 62.7538 298.415 60.4119 298.713 59.7606C299.012 59.1093 298.865 58.9755 298.865 58.9755C297.855 60.1711 297.197 61.6246 296.966 63.1731C296.966 63.1731 294.104 65.4704 293.948 65.3098Z" fill="#F22E2E"/>
</g>
<defs>
<clipPath id="clip0_145_36">
<rect width="478" height="348" fill="white"/>
</clipPath>
</defs>
</svg>
