<svg width="32" height="32" viewBox="0 0 32 32" fill="none" xmlns="http://www.w3.org/2000/svg">
<path d="M3.2 6.4L28.8 6.4C30.5673 6.4 32 4.96725 32 3.2C32 1.43275 30.5673 1.14473e-08 28.8 1.07855e-08L3.2 1.19839e-09C1.43275 5.36558e-10 2.58337e-10 1.43275 5.76989e-10 3.2C8.95641e-10 4.96725 1.43275 6.4 3.2 6.4Z" fill="white"/>
<path d="M28.8 12.8L3.2 12.8C1.43275 12.8 2.58337e-10 14.2328 5.76989e-10 16C8.95641e-10 17.7673 1.43275 19.2 3.2 19.2L28.8 19.2C30.5673 19.2 32 17.7673 32 16C32 14.2328 30.5673 12.8 28.8 12.8Z" fill="white"/>
<path d="M28.8 25.6L3.2 25.6C1.43275 25.6 2.58337e-10 27.0327 5.76989e-10 28.8C8.95641e-10 30.5672 1.43275 32 3.2 32L28.8 32C30.5673 32 32 30.5672 32 28.8C32 27.0327 30.5673 25.6 28.8 25.6Z" fill="white"/>
</svg>
