<svg width="26" height="26" viewBox="0 0 26 26" fill="none" xmlns="http://www.w3.org/2000/svg">
<path d="M12.9202 4.9834C8.4958 4.9834 4.89404 8.58516 4.89404 13.0096C4.89404 17.434 8.4958 21.0357 12.9202 21.0357C17.3446 21.0357 20.9464 17.434 20.9464 13.0096C20.9464 8.57988 17.3446 4.9834 12.9202 4.9834ZM12.9202 18.8789C9.68232 18.8789 7.04561 16.2422 7.04561 13.0043C7.04561 9.76641 9.68232 7.12969 12.9202 7.12969C16.1581 7.12969 18.7948 9.76641 18.7948 13.0043C18.7948 16.2422 16.1581 18.8789 12.9202 18.8789V18.8789Z" fill="black"/>
<path d="M12.9195 3.36445C13.5154 3.36445 13.9953 2.88457 13.9953 2.28867V1.07578C13.9953 0.479883 13.5154 0 12.9195 0C12.3236 0 11.8438 0.479883 11.8438 1.07578V2.28867C11.8438 2.88457 12.3236 3.36445 12.9195 3.36445V3.36445Z" fill="black"/>
<path d="M12.9195 22.4755C12.3236 22.4755 11.8438 22.9553 11.8438 23.5512V24.7589C11.8438 25.3548 12.3236 25.8346 12.9195 25.8346C13.5154 25.8346 13.9953 25.3548 13.9953 24.7589V23.5512C13.9953 22.9606 13.5154 22.4755 12.9195 22.4755V22.4755Z" fill="black"/>
<path d="M24.7638 11.8442H23.5509C22.955 11.8442 22.4751 12.3241 22.4751 12.92C22.4751 13.5159 22.955 13.9958 23.5509 13.9958H24.7638C25.3597 13.9958 25.8396 13.5159 25.8396 12.92C25.8396 12.3241 25.3597 11.8442 24.7638 11.8442V11.8442Z" fill="black"/>
<path d="M2.28867 11.8442H1.07578C0.479883 11.8442 0 12.3241 0 12.92C0 13.5159 0.479883 13.9958 1.07578 13.9958H2.2834C2.8793 13.9958 3.35918 13.5159 3.35918 12.92C3.36445 12.3241 2.8793 11.8442 2.28867 11.8442V11.8442Z" fill="black"/>
<path d="M20.5344 3.78625L19.6748 4.64055C19.2529 5.06243 19.2529 5.7427 19.6748 6.16458C20.0967 6.58645 20.777 6.58645 21.1988 6.16458L22.0531 5.31028C22.475 4.8884 22.475 4.20813 22.0531 3.78625C21.6313 3.36438 20.951 3.36438 20.5344 3.78625Z" fill="black"/>
<path d="M4.64092 19.6753L3.78662 20.5296C3.36475 20.9514 3.36475 21.6317 3.78662 22.0536C4.2085 22.4755 4.88877 22.4755 5.31064 22.0536L6.16494 21.1993C6.58682 20.7774 6.58682 20.0971 6.16494 19.6753C5.74307 19.2534 5.06279 19.2587 4.64092 19.6753Z" fill="black"/>
<path d="M21.1988 19.6753C20.777 19.2534 20.0967 19.2534 19.6748 19.6753C19.2529 20.0972 19.2529 20.7774 19.6748 21.1993L20.5291 22.0536C20.951 22.4755 21.6313 22.4755 22.0531 22.0536C22.475 21.6317 22.475 20.9515 22.0531 20.5296L21.1988 19.6753Z" fill="black"/>
<path d="M4.64092 6.16458C5.06279 6.58645 5.74307 6.58645 6.16494 6.16458C6.58682 5.7427 6.58682 5.06243 6.16494 4.64055L5.31064 3.78625C4.88877 3.36438 4.2085 3.36438 3.78662 3.78625C3.36475 4.20813 3.36475 4.8884 3.78662 5.31028L4.64092 6.16458V6.16458Z" fill="black"/>
</svg>
