<svg width="652" height="609" viewBox="0 0 652 609" fill="none" xmlns="http://www.w3.org/2000/svg">
<path d="M250.543 374.075C286.056 374.075 314.845 345.257 314.845 309.709C314.845 274.162 286.056 245.344 250.543 245.344C215.029 245.344 186.24 274.162 186.24 309.709C186.24 345.257 215.029 374.075 250.543 374.075Z" fill="#E6E6E6"/>
<path d="M233.169 403.699L248.987 413.511V347.191L231.257 336.194C229.792 335.285 228.721 333.858 228.256 332.195V332.195C229.95 331.871 231.704 332.196 233.169 333.105L248.987 342.917V317.2C248.987 312.225 249.596 307.269 250.802 302.442C252.007 307.269 252.617 312.225 252.617 317.2V359.174L275.952 344.7C277.815 343.544 279.971 342.949 282.163 342.985C281.22 344.966 279.727 346.633 277.864 347.789L252.617 363.449V521.614H248.987V417.785L231.257 406.788C229.792 405.879 228.72 404.452 228.256 402.789V402.789C229.95 402.465 231.704 402.79 233.169 403.699V403.699Z" fill="#CCCCCC"/>
<path d="M155.302 379.539C190.815 379.539 219.605 350.722 219.605 315.174C219.605 279.626 190.815 250.809 155.302 250.809C119.789 250.809 91 279.626 91 315.174C91 350.722 119.789 379.539 155.302 379.539Z" fill="#E6E6E6"/>
<path d="M172.675 409.165L156.858 418.976V352.656L174.587 341.659C176.053 340.75 177.124 339.323 177.588 337.66C175.894 337.337 174.141 337.661 172.675 338.571L156.858 348.382V322.665C156.858 317.69 156.248 312.734 155.043 307.907C153.837 312.734 153.228 317.69 153.228 322.665V364.64L129.893 350.165C128.029 349.01 125.873 348.414 123.682 348.45C124.625 350.431 126.117 352.098 127.981 353.254L153.228 368.914V520.636H156.858V423.25L174.587 412.253C176.053 411.344 177.124 409.917 177.588 408.255C175.894 407.931 174.141 408.256 172.675 409.165Z" fill="#CCCCCC"/>
<path d="M202.013 291.641C263.157 291.641 312.725 242.025 312.725 180.821C312.725 119.616 263.157 70 202.013 70C140.868 70 91.3003 119.616 91.3003 180.821C91.3003 242.025 140.868 291.641 202.013 291.641Z" fill="#E6E6E6"/>
<path d="M231.925 342.648L204.691 359.541V245.355L235.217 226.421C237.741 224.856 239.585 222.398 240.384 219.536L240.384 219.536H240.384C237.468 218.978 234.449 219.538 231.925 221.103L204.691 237.995V193.718C204.691 185.152 203.642 176.619 201.566 168.309C199.491 176.619 198.441 185.152 198.441 193.718V265.987L158.264 241.066C155.056 239.076 151.344 238.051 147.57 238.113C149.195 241.523 151.764 244.394 154.972 246.384L198.441 273.347V520.879H204.691V366.9L235.217 347.966C237.741 346.401 239.585 343.943 240.384 341.081L240.384 341.081H240.384C237.468 340.523 234.449 341.083 231.925 342.648V342.648Z" fill="#CCCCCC"/>
<path d="M651.048 520.676H113.213V522H651.048V520.676Z" fill="#3F3D56"/>
<path d="M516.322 176.609H514.82V101.146C514.82 94.2984 512.103 87.7313 507.266 82.8894C502.428 78.0474 495.868 75.3273 489.027 75.3273H321.134C314.293 75.3273 307.732 78.0474 302.895 82.8894C298.058 87.7313 295.34 94.2984 295.34 101.146V134.209H294.771C294.369 134.209 293.984 134.369 293.7 134.653C293.416 134.938 293.256 135.323 293.256 135.726V150.512C293.256 150.915 293.416 151.3 293.7 151.585C293.984 151.869 294.369 152.029 294.771 152.029H295.34V166.829H294.639C294.44 166.829 294.243 166.868 294.059 166.944C293.875 167.02 293.708 167.132 293.568 167.273C293.427 167.414 293.315 167.581 293.239 167.765C293.163 167.949 293.124 168.146 293.124 168.345V196.329C293.124 196.731 293.284 197.117 293.568 197.401C293.852 197.686 294.237 197.846 294.639 197.846H295.34V208.699H294.705C294.506 208.699 294.309 208.738 294.125 208.814C293.942 208.891 293.775 209.002 293.634 209.143C293.493 209.284 293.382 209.451 293.306 209.635C293.229 209.819 293.19 210.016 293.19 210.215V238.464C293.19 238.867 293.35 239.252 293.634 239.537C293.918 239.821 294.303 239.981 294.705 239.981H295.34V496.003C295.34 502.851 298.058 509.418 302.895 514.26C307.732 519.102 314.293 521.822 321.134 521.822H489.027C495.868 521.822 502.428 519.102 507.266 514.26C512.103 509.418 514.82 502.851 514.82 496.003V230.73H516.322C516.724 230.73 517.109 230.57 517.393 230.286C517.677 230.002 517.837 229.616 517.837 229.214V178.126C517.837 177.723 517.677 177.338 517.393 177.053C517.109 176.769 516.724 176.609 516.322 176.609Z" fill="#3F3D56"/>
<path d="M411.996 95.2192H386.468C385.701 95.2184 384.966 94.9133 384.425 94.3709C383.883 93.8285 383.578 93.0931 383.577 92.3259V91.2195C383.578 90.4524 383.883 89.7169 384.425 89.1745C384.966 88.6321 385.701 88.3271 386.468 88.3263H411.996C412.763 88.3271 413.498 88.6321 414.04 89.1745C414.582 89.7169 414.887 90.4524 414.888 91.2195V92.3259C414.887 93.0931 414.582 93.8285 414.04 94.3709C413.498 94.9133 412.763 95.2184 411.996 95.2192V95.2192Z" fill="white"/>
<path d="M422.72 95.3118C424.671 95.3118 426.253 93.7287 426.253 91.7757C426.253 89.8228 424.671 88.2396 422.72 88.2396C420.769 88.2396 419.188 89.8228 419.188 91.7757C419.188 93.7287 420.769 95.3118 422.72 95.3118Z" fill="white"/>
<path d="M483.834 86.955H458.695V89.9812C458.695 93.7922 457.182 97.4471 454.49 100.142C451.798 102.837 448.147 104.351 444.339 104.351H364.253C362.369 104.352 360.503 103.981 358.761 103.26C357.02 102.539 355.438 101.482 354.105 100.149C352.772 98.8155 351.714 97.2326 350.992 95.4903C350.27 93.7481 349.898 91.8806 349.897 89.9944V86.955H326.327C321.704 86.955 317.27 88.7933 314.001 92.0656C310.732 95.3378 308.895 99.776 308.895 104.404V492.738C308.895 497.366 310.732 501.804 314.001 505.077C317.27 508.349 321.704 510.187 326.327 510.187H483.834C488.455 510.187 492.887 508.35 496.155 505.079C499.423 501.807 501.259 497.371 501.259 492.745V104.404C501.259 102.113 500.81 99.8449 499.935 97.7284C499.06 95.6119 497.777 93.6886 496.16 92.0683C494.542 90.448 492.622 89.1625 490.508 88.2852C488.394 87.4078 486.128 86.9558 483.84 86.955H483.834Z" fill="white"/>
<path d="M438.816 463.065H371.338C366.513 463.065 361.886 461.147 358.474 457.732C355.062 454.316 353.146 449.685 353.146 444.855C353.146 440.025 355.062 435.394 358.474 431.978C361.886 428.563 366.513 426.645 371.338 426.645H438.816C443.641 426.645 448.268 428.563 451.68 431.978C455.091 435.394 457.008 440.025 457.008 444.855C457.008 449.685 455.091 454.316 451.68 457.732C448.268 461.147 443.641 463.065 438.816 463.065Z" fill="#8B5CF6"/>
<path d="M465.278 313.484H344.876C343.21 313.484 341.611 312.821 340.433 311.641C339.254 310.461 338.592 308.861 338.592 307.193C338.592 305.524 339.254 303.924 340.433 302.745C341.611 301.565 343.21 300.902 344.876 300.902H465.278C466.944 300.902 468.543 301.565 469.722 302.745C470.9 303.924 471.562 305.524 471.562 307.193C471.562 308.861 470.9 310.461 469.722 311.641C468.543 312.821 466.944 313.484 465.278 313.484V313.484Z" fill="#E6E6E6"/>
<path d="M465.278 332.025H344.876C343.21 332.025 341.611 331.362 340.433 330.182C339.254 329.003 338.592 327.403 338.592 325.734C338.592 324.066 339.254 322.466 340.433 321.286C341.611 320.106 343.21 319.443 344.876 319.443H465.278C466.944 319.443 468.543 320.106 469.722 321.286C470.9 322.466 471.562 324.066 471.562 325.734C471.562 327.403 470.9 329.003 469.722 330.182C468.543 331.362 466.944 332.025 465.278 332.025V332.025Z" fill="#E6E6E6"/>
<path d="M465.278 350.567H344.876C343.21 350.567 341.611 349.904 340.433 348.724C339.254 347.544 338.592 345.944 338.592 344.276C338.592 342.607 339.254 341.007 340.433 339.828C341.611 338.648 343.21 337.985 344.876 337.985H465.278C466.944 337.985 468.543 338.648 469.722 339.828C470.9 341.007 471.562 342.607 471.562 344.276C471.562 345.944 470.9 347.544 469.722 348.724C468.543 349.904 466.944 350.567 465.278 350.567V350.567Z" fill="#E6E6E6"/>
<path d="M465.278 369.108H344.876C343.21 369.108 341.611 368.445 340.433 367.265C339.254 366.086 338.592 364.485 338.592 362.817C338.592 361.149 339.254 359.549 340.433 358.369C341.611 357.189 343.21 356.526 344.876 356.526H465.278C466.944 356.526 468.543 357.189 469.722 358.369C470.9 359.549 471.562 361.149 471.562 362.817C471.562 364.485 470.9 366.086 469.722 367.265C468.543 368.445 466.944 369.108 465.278 369.108V369.108Z" fill="#E6E6E6"/>
<path d="M383.246 387.649H344.876C343.21 387.649 341.611 386.986 340.433 385.807C339.254 384.627 338.592 383.027 338.592 381.358C338.592 379.69 339.254 378.09 340.433 376.91C341.611 375.73 343.21 375.068 344.876 375.068H383.246C384.913 375.068 386.512 375.73 387.69 376.91C388.869 378.09 389.531 379.69 389.531 381.358C389.531 383.027 388.869 384.627 387.69 385.807C386.512 386.986 384.913 387.649 383.246 387.649H383.246Z" fill="#E6E6E6"/>
<path d="M484.122 261.932H326.032C324.635 261.93 323.295 261.374 322.307 260.385C321.318 259.396 320.762 258.055 320.761 256.656V139.208C320.762 137.81 321.318 136.468 322.307 135.479C323.295 134.49 324.635 133.934 326.032 133.932H484.122C485.52 133.934 486.859 134.49 487.848 135.479C488.836 136.468 489.392 137.81 489.393 139.208V256.656C489.392 258.055 488.836 259.396 487.848 260.385C486.859 261.374 485.52 261.93 484.122 261.932V261.932Z" fill="#E6E6E6"/>
<g opacity="0.1">
<path opacity="0.1" d="M512.124 228.406C512.123 227.496 512.123 226.583 512.124 225.664C512.087 226.372 512.087 227.082 512.124 227.79C512.117 227.995 512.124 228.201 512.124 228.406Z" fill="black"/>
</g>
<path d="M538.495 280.476C548.082 280.476 555.853 272.697 555.853 263.101C555.853 253.505 548.082 245.726 538.495 245.726C528.909 245.726 521.137 253.505 521.137 263.101C521.137 272.697 528.909 280.476 538.495 280.476Z" fill="#FFB8B8"/>
<path d="M583.641 403.993C584.318 403.372 584.852 402.61 585.203 401.761C585.554 400.911 585.715 399.995 585.675 399.077C585.634 398.158 585.393 397.26 584.968 396.445C584.543 395.63 583.944 394.918 583.214 394.359L580.848 373.315L567.667 376.916L574.084 395.857C573.228 397.146 572.874 398.705 573.089 400.238C573.305 401.771 574.074 403.172 575.252 404.174C576.43 405.177 577.935 405.713 579.481 405.679C581.027 405.646 582.507 405.046 583.641 403.993V403.993Z" fill="#FFB8B8"/>
<path d="M593.271 510.542L600.547 505.832L585.858 475.502L575.121 482.454L593.271 510.542Z" fill="#FFB8B8"/>
<path d="M618.947 503.51L596.083 518.314L590.368 509.471L604.729 500.173C605.846 499.45 607.094 498.954 608.402 498.714C609.71 498.474 611.053 498.494 612.353 498.773C613.654 499.052 614.887 499.585 615.981 500.341C617.076 501.097 618.011 502.062 618.734 503.179L618.947 503.51V503.51Z" fill="#2F2E41"/>
<path d="M528.843 513.625H537.507L541.63 480.173H528.843V513.625Z" fill="#FFB8B8"/>
<path d="M554.217 521.678H526.986V511.147H544.09C546.776 511.147 549.352 512.215 551.251 514.116C553.15 516.017 554.217 518.596 554.217 521.284V521.678V521.678Z" fill="#2F2E41"/>
<path d="M563.617 297.601C562.465 301.357 566.549 305.445 567.867 309.136C569.186 312.827 570.96 316.379 571.673 320.242C572.16 322.898 583.213 381.56 582.682 385.132C579.28 384.112 575.615 384.448 572.455 386.071C570.247 382.189 568.921 377.868 568.569 373.415C568.436 370.775 568.461 368.128 568.644 365.491C568.987 358.028 565.755 350.555 565.648 343.086C565.682 340.498 565.477 337.912 565.037 335.361C564.683 333.606 564.716 330.323 564.335 328.574C563.729 325.795 566.334 324.512 566.19 321.664L565.396 306.105C565.23 303.379 562.497 300.037 563.617 297.601Z" fill="#2F2E41"/>
<path d="M524.428 362.88C521.642 367.23 515.778 368.171 511.676 371.287C505.407 376.077 521.398 483.681 526.677 502.796C540.607 500.705 541.094 500.712 542.696 500.008C544.298 499.304 545.747 444.648 549.131 433.382C555.466 439.358 575.402 490.715 579.609 502.099C596.324 497.916 579.609 502.099 601.199 496.522C601.018 492.576 569.294 364.002 568.138 353.873C553.624 356.766 538.9 359.994 524.428 362.88Z" fill="#2F2E41"/>
<path d="M522.55 282.08C520.83 287.182 523.172 307.033 523.343 311.497C523.59 315.549 523.59 319.613 523.343 323.665C522.748 330.682 520.663 337.748 522.062 344.648C522.979 349.213 524.608 353.457 524.989 358.103C525.246 361.322 525.166 364.595 526.184 367.648C529.936 366.038 563.199 360.505 565.643 357.288C563.971 349.203 565.59 340.855 564.48 332.673C563.837 327.957 562.245 323.418 561.495 318.724C560.568 312.929 560.959 306.92 559.27 301.292C558.334 298.443 557.145 295.683 555.717 293.046C554.263 290.047 552.44 287.584 551.817 287.585C550.235 287.671 522.651 281.625 522.55 282.08Z" fill="#8B5CF6"/>
<path d="M516.182 403.556C516.182 403.556 521.949 392.038 522.239 385.449C522.341 383.083 528.815 373.668 531.731 371.532C538.645 366.462 543.742 332.48 541.406 324.234C537.364 309.979 530.557 296.689 523.648 283.588C523.443 283.099 523.109 282.675 522.684 282.359C521.279 281.485 519.757 283.207 518.798 284.554C515.544 289.119 510.184 291.56 505.275 294.259C500.365 296.958 495.343 300.552 493.858 305.955C492.861 309.582 493.639 313.428 494.394 317.103C495.15 320.779 497.793 323.697 499.792 326.793C502.109 330.209 508.129 345.36 508.083 347.159C508.201 358.275 508.314 369.429 506.969 380.47C506.213 386.71 505.548 399.248 505.548 399.248L516.182 403.556Z" fill="#2F2E41"/>
<path d="M568.559 391.646C557.941 367.455 558.536 339.926 551.788 314.389C549.783 306.808 547.103 299.189 547.586 291.362C547.672 289.961 547.966 288.389 549.135 287.606C550.175 286.909 551.59 287.096 552.731 287.606C553.873 288.116 554.848 288.947 555.947 289.516C557.721 290.423 559.785 290.68 561.489 291.705C564.019 293.229 565.311 296.126 566.442 298.851C568.859 304.672 571.266 310.655 571.459 316.964C571.866 329.218 566.436 340.994 569.266 352.91C569.877 355.26 570.607 357.577 571.453 359.852C574.29 368.072 576.617 376.459 578.421 384.966C578.737 386.42 569.004 392.665 568.559 391.646Z" fill="#2F2E41"/>
<path d="M534.851 385.922C534.993 385.013 534.934 384.085 534.679 383.202C534.424 382.318 533.978 381.502 533.373 380.81C532.769 380.118 532.02 379.567 531.18 379.195C530.339 378.824 529.428 378.642 528.509 378.662L513.536 363.7L505.485 374.751L522.311 385.537C522.446 387.079 523.142 388.518 524.266 389.581C525.39 390.644 526.865 391.257 528.411 391.305C529.956 391.352 531.466 390.83 532.653 389.838C533.84 388.846 534.622 387.452 534.851 385.922V385.922Z" fill="#FFB8B8"/>
<path d="M487.143 351.944C487.389 354.192 506.253 377.899 516.504 385.637C515.909 382.584 523.943 372.626 526.543 371.071C520.047 364.936 506.474 350.709 506.025 349.932C504.557 347.094 506.025 343.703 507.306 340.769C511.342 331.439 513.245 320.853 510.656 311.019C509.681 307.328 507.976 303.631 504.873 301.362C503.517 300.375 501.684 299.699 500.178 300.45C499.547 300.813 498.999 301.305 498.57 301.893C493.762 307.747 486.96 350.275 487.143 351.944Z" fill="#2F2E41"/>
<path d="M531.097 278.305C532.11 274.001 526.987 264.739 528.001 260.435C528.687 257.52 535.535 259.501 537.133 256.97C538.731 254.438 541.408 252.387 544.399 252.353C547.838 252.314 551.222 254.868 554.479 253.764C557.773 252.648 558.825 248.134 557.369 244.973C555.913 241.812 552.776 239.798 549.677 238.22C544.4 235.533 538.255 233.57 532.606 235.348C529.192 236.423 526.337 238.752 523.574 241.03C521.056 243.106 518.495 245.23 516.734 247.98C513.285 253.366 513.494 260.624 516.441 266.302C519.388 271.979 524.759 276.145 530.676 278.564" fill="#2F2E41"/>
<path d="M75.29 59L77.2124 71.5024L89.7147 69.58L91.637 82.0824L104.139 80.1601L106.062 92.6624" stroke="#280E60" stroke-width="8" stroke-linecap="round" stroke-linejoin="round"/>
<path d="M436 584.428L448.064 579.521L443.157 567.457L455.221 562.55L450.314 550.486L462.379 545.579" stroke="#416832" stroke-width="8" stroke-linecap="round" stroke-linejoin="round"/>
<path d="M522.366 86.5696C521.036 80.9208 524.481 75.2542 529.99 73.8694C535.5 72.4846 541.08 75.8826 542.411 81.5314C543.741 87.1801 540.296 92.8468 534.787 94.2316C529.277 95.6164 523.697 92.2183 522.366 86.5696Z" stroke="#A40581" stroke-width="6"/>
<ellipse rx="5.90315" ry="6.00485" transform="matrix(0.924242 0.381807 -0.377809 0.925884 197.865 270.743)" fill="#D00DD2"/>
<path d="M404.957 31.018C410.482 29.7078 416.018 33.1801 417.275 38.8484C418.531 44.5167 415.012 50.1364 409.487 51.4466C403.962 52.7569 398.426 49.2845 397.169 43.6163C395.913 37.948 399.432 32.3283 404.957 31.018Z" stroke="#00FF85" stroke-width="6"/>
<ellipse rx="5.92388" ry="5.98441" transform="matrix(-0.731164 -0.682201 0.671609 -0.740905 340.006 16.7213)" fill="#0A39DD"/>
<ellipse rx="5.92388" ry="5.98441" transform="matrix(-0.731164 -0.682201 0.671609 -0.740905 526.35 541.475)" fill="#0A39DD"/>
<ellipse rx="5.92388" ry="5.98441" transform="matrix(-0.731164 -0.682201 0.671609 -0.740905 373.963 578.071)" fill="#789F08"/>
<path d="M285.283 578.017C284.848 583.849 279.862 588.179 274.239 587.798C268.616 587.418 264.321 582.459 264.755 576.627C265.189 570.794 270.176 566.464 275.798 566.845C281.421 567.226 285.717 572.184 285.283 578.017Z" stroke="#FD58FF" stroke-width="6"/>
<ellipse rx="6.00555" ry="5.90245" transform="matrix(0.173473 -0.984839 0.985398 0.170265 120.583 514.886)" fill="#FD58FF"/>
<path d="M356.211 158.677L366.656 158.567L366.641 147.962L377.087 147.852L377.072 137.248L387.517 137.138" stroke="#FD58FF" stroke-width="6" stroke-linecap="round" stroke-linejoin="round"/>
<path d="M77.6108 418.195L79.1518 428.67L89.4829 427.012L91.0239 437.487L101.355 435.829L102.896 446.304" stroke="#FD58FF" stroke-width="6" stroke-linecap="round" stroke-linejoin="round"/>
<path d="M190.125 484.38L194.623 474.769L185.196 470.287L189.695 460.675L180.268 456.193L184.767 446.581" stroke="#6629E8" stroke-width="6" stroke-linecap="round" stroke-linejoin="round"/>
<path d="M67.0432 542.644C67.3663 545.582 66.979 548.564 65.9128 551.332C64.8465 554.101 63.1336 556.572 60.9216 558.529C58.7097 560.487 56.0668 561.872 53.2225 562.564C50.3783 563.257 47.4194 563.236 44.6018 562.506" stroke="#9483FF" stroke-width="6"/>
<path d="M181.662 555.998C183.86 557.917 185.564 560.36 186.622 563.117C187.68 565.874 188.06 568.861 187.725 571.818C187.39 574.775 186.351 577.608 184.702 580.074C183.052 582.538 180.843 584.559 178.269 585.963" stroke="#00FF85" stroke-width="6"/>
<path d="M65 296.374L75.4424 296.024L75.1908 285.424L85.6332 285.074L85.3817 274.475L95.8241 274.125" stroke="#00FF85" stroke-width="6" stroke-linecap="round" stroke-linejoin="round"/>
<path d="M261.19 38.014C263.843 35.4776 265.668 32.6347 266.615 29.7817C267.558 26.9435 267.614 24.1653 266.881 21.6455C266.149 19.1249 264.608 16.795 262.277 14.881C259.935 12.9576 256.855 11.508 253.24 10.7566" stroke="#FD58FF" stroke-width="8"/>
<circle cx="241.7" cy="219.7" r="7.36741" transform="rotate(-177.355 241.7 219.7)" fill="#1CC8EE"/>
<circle cx="554.168" cy="601.083" r="7.36741" transform="rotate(-177.355 554.168 601.083)" fill="#1CC8EE"/>
<circle cx="143.747" cy="237.311" r="7.36741" transform="rotate(-120.059 143.747 237.311)" fill="#E2F316"/>
<path d="M287.955 554.483L297.695 545.837L289.049 536.097L298.789 527.451L290.143 517.711L299.883 509.065" stroke="#416832" stroke-width="8" stroke-linecap="round" stroke-linejoin="round"/>
<path d="M44.0352 211.974C40.6741 213.233 37.0567 213.655 33.4962 213.201C29.9357 212.748 26.5391 211.435 23.6005 209.374C20.6618 207.313 18.2694 204.567 16.6304 201.374C14.9914 198.181 14.155 194.636 14.1937 191.047" stroke="#FD58FF" stroke-width="8"/>
</svg>
