<svg width="15" height="15" viewBox="0 0 15 15" fill="none" xmlns="http://www.w3.org/2000/svg">
<g clip-path="url(#clip0_344_193)">
<path d="M7.50001 -0.000244141C4.74306 -0.000244141 2.5 2.24281 2.5 4.99977C2.5 5.8274 2.70692 6.64801 3.10029 7.37586L7.22658 14.8386C7.28151 14.9381 7.38619 14.9998 7.50001 14.9998C7.61383 14.9998 7.71851 14.9381 7.77344 14.8386L11.9012 7.3734C12.2931 6.64801 12.5 5.82737 12.5 4.99974C12.5 2.24281 10.257 -0.000244141 7.50001 -0.000244141ZM7.50001 7.49976C6.12153 7.49976 5.00002 6.37824 5.00002 4.99977C5.00002 3.62129 6.12153 2.49978 7.50001 2.49978C8.87849 2.49978 10 3.62129 10 4.99977C10 6.37824 8.87849 7.49976 7.50001 7.49976Z" fill="#D7CFCF"/>
</g>
<defs>
<clipPath id="clip0_344_193">
<rect width="15" height="15" fill="white"/>
</clipPath>
</defs>
</svg>
